<svg height="40" viewBox="0 0 40 40" width="40" xmlns="http://www.w3.org/2000/svg"><g fill="none" fill-rule="evenodd"><path d="m0 0h40v40h-40z" fill="none"/><path d="m22.195 7.457c1.354.072 4.29 2.314 5.486 3.075 1.131.719 3.015 3.99 4.018 7.127 1.004-.095 6.074-1.416 6.088-1.42 2.29-.572 3.16 2.907.87 3.48-.015.003-5.104 1.36-6.634 1.503-.259.025-2.14.075-2.925-1.064-1.238-1.359-.935-3.372-1.948-4.259-1.236 1.942-2.739 4.64-4.086 6.397l1.358 1.109c3.907 3.182 4.243 3.458 3.594 6.059-.5 2.004-3.047 9.313-3.054 9.335-.765 2.23-4.163 1.07-3.397-1.166.007-.02 2.519-7.24 2.968-9.038.098-.397-.097-.56-2.372-2.412-2.244-1.825-2.904-2.33-5.099-3.725-.487 1.154-.948 2.29-1.347 3.268-2.188 5.383-2.689 6.611-6.252 6.611-3.217 0-8.13-1.248-8.142-1.251-2.28-.6-1.37-4.064.912-3.465.013.003 4.425 1.124 7.23 1.124 1.15 0 1.48-.811 2.926-4.367 2.467-6.061 3.641-7.388 7.507-13.458-1.624-.075-2.64-.075-3.275.093-.534.142-.891.61-1.466 1.567-1.63 2.714-2.272 4.192-2.273 4.196-1.052 2.104-4.253.506-3.2-1.599 0-.003.702-1.607 2.4-4.433 1.088-1.813 1.884-2.732 3.626-3.194 1.405-.373 3.215-.279 6.489-.09l-.002-.003zm7.758-7.457c2.43 0 4.398 1.968 4.398 4.395s-1.968 4.394-4.398 4.394c-2.429 0-4.397-1.967-4.397-4.394s1.968-4.395 4.397-4.395z" fill="#000"/></g></svg>