<svg height="66" viewBox="0 0 67 66" width="67" xmlns="http://www.w3.org/2000/svg"><path d="m114.9 403.83 2.806 2.85 1.938-1.908.356-.35.702.712-.357.35-1.937 1.908 2.806 2.85-9.57 3.109zm10.8-5.022.702.713-.356.35-2.85 2.807-.357.351-.701-.713.356-.35 2.85-2.807.357-.35zm5.701-5.612.702.712-.356.351-2.85 2.806-.357.351-.702-.712.357-.351 2.85-2.807zm5.7-5.613.702.712-.356.351-2.85 2.807-.356.35-.702-.712.356-.351 2.85-2.806.357-.351zm5.701-5.613.702.712-.356.351-2.85 2.807-.357.35-.702-.712.357-.35 2.85-2.807zm5.7-5.613.702.713-.356.35-2.85 2.807-.356.35-.702-.712.356-.35 2.85-2.807.357-.35zm5.701-5.613.702.713-.356.35-2.85 2.807-.357.35-.701-.712.356-.35 2.85-2.807.356-.35zm5.7-5.613.702.713-.356.35-2.85 2.807-.356.351-.702-.713.356-.35 2.85-2.807.357-.35zm5.701-5.612.702.712-.356.351-2.85 2.806-.357.351-.701-.712.356-.351 2.85-2.807zm5.7-5.613.703.712-.357.351-2.85 2.807-.356.35-.702-.712.356-.351 2.85-2.806.357-.351zm5.701-5.613.702.712-.356.351-2.85 2.807-.357.35-.701-.712.356-.35 2.85-2.807z" fill="#a8acb0" transform="translate(-111 -348)"/></svg>