<svg xmlns="http://www.w3.org/2000/svg" width="30" height="30" viewBox="0 0 30 30">
    <g fill="none" fill-rule="evenodd">
        <g>
            <g>
                <g>
                    <path fill="#D8D8D8" fill-opacity="0" d="M0 0H30V30H0z" transform="translate(-550 -366) translate(520 349) translate(30 17)"/>
                    <g fill-rule="nonzero">
                        <path fill="#1E2026" d="M22.5 0h-15C3.358 0 0 3.358 0 7.5v15C0 26.642 3.358 30 7.5 30h15c4.142 0 7.5-3.358 7.5-7.5v-15C30 3.358 26.642 0 22.5 0z" transform="translate(-550 -366) translate(520 349) translate(30 17)"/>
                        <path fill="#F0B90B" d="M15.268 3.75L9.347 7.196 11.524 8.47 15.268 6.296 19.012 8.47 21.189 7.196zM19.012 10.269L21.189 11.543 21.189 14.089 17.445 16.262 17.445 20.608 15.268 21.882 13.091 20.608 13.091 16.262 9.347 14.089 9.347 11.543 11.524 10.269 15.268 12.443z" transform="translate(-550 -366) translate(520 349) translate(30 17)"/>
                        <path fill="#F0B90B" d="M21.189 15.889L21.189 18.435 19.012 19.709 19.012 17.162z" transform="translate(-550 -366) translate(520 349) translate(30 17)"/>
                        <path fill="#F0B90B" d="M18.99 21.509L22.734 19.335 22.734 14.989 24.911 13.716 24.911 20.608 18.99 24.055zM22.734 10.643L20.557 9.37 22.734 8.096 24.911 9.37 24.911 11.916 22.734 13.189zM13.091 24.977L13.091 22.431 15.268 23.704 17.445 22.431 17.445 24.977 15.268 26.25zM11.524 19.709L9.347 18.435 9.347 15.889 11.524 17.162zM15.268 10.643L13.091 9.37 15.268 8.096 17.445 9.37zM9.978 9.37L7.802 10.643 7.802 13.189 5.625 11.916 5.625 9.37 7.802 8.096z" transform="translate(-550 -366) translate(520 349) translate(30 17)"/>
                        <path fill="#F0B90B" d="M5.625 13.716L7.802 14.989 7.802 19.335 11.546 21.509 11.546 24.055 5.625 20.608z" transform="translate(-550 -366) translate(520 349) translate(30 17)"/>
                    </g>
                </g>
            </g>
        </g>
    </g>
</svg>
