<svg xmlns="http://www.w3.org/2000/svg" width="72" height="72" viewBox="0 0 72 72">
    <g fill="none" fill-rule="evenodd">
        <g>
            <g>
                <circle cx="36" cy="36" r="36" fill="#202833"/>
                <path fill="#F0B90B" d="M46.019 40.164l5.888 5.89L35.975 62 20.044 46.056l5.887-5.892L35.975 50.27 46.02 40.164zM56.065 30.11L62 36l-5.883 5.891L50.23 36l5.834-5.891zm-20.09.002l5.886 5.837-5.886 5.893v-.002L30.09 36l5.885-5.889zm-20.09-.002L21.72 36l-5.831 5.84L10 36l5.886-5.891zM35.976 10l15.932 15.895-5.888 5.889L35.975 21.73 25.931 31.836l-5.887-5.89L35.975 10z"/>
            </g>
        </g>
    </g>
</svg>
