<svg xmlns="http://www.w3.org/2000/svg" width="20" height="20" viewBox="0 0 20 20">
    <g fill="none" fill-rule="evenodd">
        <g>
            <g transform="translate(-184 -853) translate(184 853)">
                <circle cx="10" cy="10" r="10" fill="#F0B90B"/>
                <path fill="#FFF" d="M13.083 11.281l1.811 1.812L9.992 18 5.09 13.094l1.812-1.813 3.09 3.11 3.09-3.11zm3.09-3.094L18 10l-1.81 1.813L14.379 10l1.795-1.813zm-6.18.001l1.81 1.796-1.81 1.813L8.18 10l1.811-1.812zm-6.182 0L5.606 10l-1.794 1.797L2 10l1.81-1.813zM9.992 2l4.902 4.89-1.811 1.813-3.09-3.094-3.091 3.11L5.09 6.907 9.992 2z"/>
            </g>
        </g>
    </g>
</svg>
