<svg height="40" viewBox="0 0 40 40" width="40" xmlns="http://www.w3.org/2000/svg"><g fill="none" fill-rule="evenodd"><path d="m0 0h40v40h-40z" fill="none"/><g fill="#828589" transform="translate(1)"><path d="m0 40h6.129v-14.545h-6.129zm37.87-15.299c-2.558 6.976-9.433 11.663-17.104 11.663h-13.411v-9.39c.407-.31.826-.611 1.276-.862 2.668-1.521 5.792-1.944 8.79-1.204 2.755.682 5.095 2.287 6.68 4.531-1.25.284-2.564.382-3.889.274-.303-.018-.585.198-.61.497-.026.3.205.564.515.588 5.76.468 11.221-2.628 13.593-7.707.477-1.018 1.704-1.523 2.793-1.15.566.193 1.017.584 1.276 1.107.258.521.292 1.108.09 1.654h.001zm-18.87-24.701c-5.746 0-10.42 4.622-10.42 10.303s4.673 10.303 10.42 10.303c5.746 0 10.42-4.622 10.42-10.303 0-5.68-4.674-10.303-10.42-10.303zm2.903 13.847c-.284.766-.852 1.378-1.601 1.72-.235.107-.48.177-.73.223v.591c0 .31-.254.564-.57.564-.314 0-.57-.253-.57-.564v-.586c-.166-.032-.33-.074-.495-.131-.775-.28-1.391-.842-1.737-1.583-.348-.739-.382-1.57-.098-2.336.108-.292.437-.441.73-.336.296.108.448.43.339.722-.18.483-.158 1.009.062 1.475.217.467.608.821 1.099 1 .032.013.07.015.1.026l.002-3.84c-.158-.022-.31-.052-.459-.107-1.545-.561-2.345-2.26-1.78-3.79.276-.74.826-1.332 1.55-1.665.222-.104.452-.165.687-.211v-.794c0-.31.254-.563.57-.563.314 0 .57.25.57.563v.796c.156.03.31.063.459.116.749.272 1.347.817 1.684 1.53.335.715.369 1.52.096 2.26-.11.294-.436.441-.73.336-.295-.108-.448-.43-.34-.722.17-.46.15-.956-.06-1.4-.208-.442-.578-.778-1.043-.947-.021-.008-.045-.01-.066-.019v3.64c.166.024.333.054.493.113.775.278 1.394.84 1.737 1.58.35.741.384 1.573.1 2.339z"/><path d="m18.502 9.49c-.955-.344-1.447-1.395-1.098-2.34.168-.458.506-.822.955-1.029.069-.029.14-.05.209-.071v3.457c-.021-.006-.047-.008-.066-.016zm1.303 1.352c.487.177.874.53 1.096.997.217.465.242.99.061 1.471-.178.482-.536.867-1.008 1.084-.081.038-.166.061-.252.086v-3.66c.035.008.07.01.103.023z"/></g></g></svg>