<svg xmlns="http://www.w3.org/2000/svg" width="6" height="11" viewBox="0 0 6 11">
    <g fill="none" fill-rule="evenodd">
        <g fill="#f0b90b">
            <g>
                <path d="M172 94.152c-.002.302.105.594.3.817l3.189 3.531-3.185 3.53c-.405.461-.405 1.17 0 1.631.189.216.456.339.735.339.28 0 .547-.123.736-.339l3.92-4.346c.407-.46.407-1.17 0-1.628l-3.92-4.348c-.19-.216-.456-.339-.736-.339-.28 0-.546.123-.735.339-.196.22-.305.511-.304.813" transform="translate(-332 -550) translate(160 457)"/>
            </g>
        </g>
    </g>
</svg>
