<svg xmlns="http://www.w3.org/2000/svg" width="28" height="20" viewBox="0 0 28 20">
    <g fill="none" fill-rule="evenodd">
        <g fill="#FFF">
            <g>
                <path d="M29.876 16h-7.752C16.533 16 12 20.477 12 26s4.533 10 10.124 10H40V26c0-5.523-4.533-10-10.124-10zm-10.26 11.778c-.994 0-1.8-.796-1.8-1.778s.806-1.778 1.8-1.778 1.8.796 1.8 1.778c0 .472-.19.924-.527 1.257-.338.334-.796.521-1.273.521zm6.384 0c-.994 0-1.8-.796-1.8-1.778s.806-1.778 1.8-1.778 1.8.796 1.8 1.778-.806 1.778-1.8 1.778zm6.384 0c-.994 0-1.8-.796-1.8-1.778s.806-1.778 1.8-1.778 1.8.796 1.8 1.778-.806 1.778-1.8 1.778z" transform="translate(-1367 -1131) translate(1355 1115)"/>
            </g>
        </g>
    </g>
</svg>
