<svg height="16" viewBox="0 0 16 16" width="16" xmlns="http://www.w3.org/2000/svg"><path d="m942 878c-4.419 0-8 3.581-8 8s3.581 8 8 8 8-3.581 8-8-3.581-8-8-8zm-.047 2.883c.311 0 .563.251.563.562s-.252.563-.563.563c-.31 0-.562-.252-.562-.563 0-.31.251-.562.562-.562zm2.456 8.704c0 .311-.251.563-.562.563h-3.788c-.31 0-.562-.252-.562-.563 0-.31.251-.562.562-.562h1.332v-4.908h-.938c-.31 0-.562-.251-.562-.562s.251-.563.562-.563h1.5c.311 0 .563.252.563.563v5.47h1.33c.312 0 .563.252.563.563z" fill="#f0b90b" transform="translate(-934 -878)"/></svg>