<svg height="30" viewBox="0 0 30 30" width="30" xmlns="http://www.w3.org/2000/svg" xmlns:xlink="http://www.w3.org/1999/xlink"><linearGradient id="a" x1="50%" x2="50%" y1="100%" y2="0%"><stop offset="0" stop-color="#2e66f8"/><stop offset="1" stop-color="#124adb"/></linearGradient><g fill="none" fill-rule="evenodd"><path d="m0 0h30v30h-30z" fill="none"/><path d="m15 0c-8.284 0-15 6.716-15 15s6.716 15 15 15 15-6.716 15-15-6.716-15-15-15z" fill="url(#a)"/><path d="m6.162 15c0-4.88 3.957-8.838 8.838-8.838 4.88 0 8.838 3.957 8.838 8.838 0 4.88-3.957 8.838-8.838 8.838-4.88 0-8.838-3.957-8.838-8.838zm6.58 2.848c-.326 0-.59-.264-.59-.59v-4.516c0-.326.264-.59.59-.59h4.517c.325 0 .589.264.589.59v4.517c0 .325-.264.589-.59.589z" fill="#fff"/></g></svg>