<svg xmlns="http://www.w3.org/2000/svg" width="24" height="24" viewBox="0 0 24 24">
    <g fill="none" fill-rule="evenodd">
        <g>
            <g>
                <g transform="translate(-240 -705) translate(200 665) translate(40 40)">
                    <circle cx="12" cy="12" r="12" fill="#DEDEDE"/>
                    <path stroke="#A8ACB0" stroke-linecap="round" stroke-linejoin="round" d="M14.6 7.71c2.154 0 3.9-.495 3.9-1.105S16.754 5.5 14.6 5.5s-3.9.495-3.9 1.105 1.746 1.105 3.9 1.105zm-3.9.585c0 .607 1.755 1.105 3.9 1.105s3.9-.498 3.9-1.105m-7.8 1.733c0 .607 1.755 1.105 3.9 1.105s3.9-.498 3.9-1.105m-7.8 1.734c0 .606 1.755 1.105 3.9 1.105s3.9-.499 3.9-1.105m-5.2 2.773c.412.043.845.065 1.3.065 2.145 0 3.9-.498 3.9-1.105m-7.8-.607V6.692m7.8-.087v8.623c0 .607-1.755 1.105-3.9 1.105-.455 0-.888-.021-1.3-.065m-3.9-1.235c2.154 0 3.9-.494 3.9-1.105 0-.61-1.746-1.105-3.9-1.105s-3.9.495-3.9 1.105 1.746 1.105 3.9 1.105zm-3.9.629c0 .606 1.733 1.105 3.9 1.105s3.9-.499 3.9-1.105m0-1.734v3.467c0 .607-1.755 1.105-3.9 1.105s-3.9-.498-3.9-1.105v-3.38"/>
                </g>
            </g>
        </g>
    </g>
</svg>
