<svg height="24" viewBox="0 0 24 24" width="24" xmlns="http://www.w3.org/2000/svg"><g fill="none" fill-rule="evenodd"><circle cx="12" cy="12" fill="#f0b90b" r="12"/><path d="m5.535 8.851v.012l5.9 2.691h.006c.355.165.765.165 1.12 0h.006l5.9-2.691v-.012c.223-.074.376-.278.384-.513-.008-.236-.163-.442-.389-.514l-5.892-2.7h-.011c-.354-.165-.764-.165-1.118 0h-.011l-5.89 2.7c-.226.072-.381.278-.389.514.008.235.161.44.384.513zm12.925 2.634-1.153-.529c-1.807.827-4.277 1.953-4.307 1.963-.642.255-1.358.255-2 0-.028-.009-2.494-1.134-4.3-1.962l-1.16.528c-.23.064-.389.273-.39.512-.001.238.156.448.385.515v.011l5.9 2.692h.006c.355.165.765.165 1.12 0h.006l5.9-2.692v-.011c.23-.065.387-.275.387-.514 0-.238-.158-.448-.387-.513zm0 3.663-1.153-.529c-1.807.828-4.277 1.954-4.307 1.963-.642.257-1.358.257-2 0-.028-.009-2.494-1.134-4.3-1.962l-1.16.528c-.23.065-.388.274-.39.512 0 .238.156.449.385.516v.011l5.9 2.691h.006c.355.165.765.165 1.12 0h.006l5.9-2.691v-.011c.229-.066.387-.276.387-.514s-.158-.448-.387-.514z" fill="#fff" fill-rule="nonzero"/></g></svg>