<svg xmlns="http://www.w3.org/2000/svg" width="27" height="20" viewBox="0 0 27 20">
    <g fill="none" fill-rule="evenodd">
        <g fill="#FFF">
            <path d="M1275.824 1069l.232.286c-4.161 1.238-6.08 3.119-6.08 3.119s.509-.286 1.364-.69c2.473-1.12 4.438-1.429 5.247-1.5.139-.024.255-.048.393-.048 1.55-.208 3.117-.224 4.67-.048 2.196.262 4.554.929 6.958 2.286 0 0-1.826-1.786-5.756-3.024l.323-.38h.077c.5.008 3.393.162 6.42 2.5 0 0 3.328 6.213 3.328 13.88 0 0-1.965 3.452-7.074 3.619 0 0-.532-.655-1.1-1.38l-.214-.275-.211-.274c3.028-.88 4.184-2.833 4.184-2.833-.948.643-1.85 1.095-2.659 1.405-1.155.5-2.265.833-3.352 1.024-2.219.428-4.253.31-5.987-.024-1.317-.262-2.45-.643-3.398-1.024-.532-.214-1.11-.476-1.687-.81-.07-.047-.139-.071-.208-.119-.047-.023-.07-.047-.093-.07-.416-.24-.647-.406-.647-.406s1.11 1.905 4.045 2.81l-.212.275-.215.278c-.574.737-1.122 1.423-1.122 1.423-5.108-.167-7.05-3.62-7.05-3.62 0-7.666 3.329-13.88 3.329-13.88 3.026-2.337 5.918-2.491 6.42-2.5h.075zm-.647 8.881c-1.317 0-2.358 1.19-2.358 2.643 0 1.452 1.064 2.643 2.358 2.643 1.318 0 2.358-1.19 2.358-2.643.023-1.453-1.04-2.643-2.358-2.643zm8.438 0c-1.318 0-2.358 1.19-2.358 2.643 0 1.452 1.063 2.643 2.358 2.643 1.317 0 2.357-1.19 2.357-2.643 0-1.453-1.04-2.643-2.357-2.643z" transform="translate(-1266 -1069)"/>
        </g>
    </g>
</svg>
