<svg height="24" viewBox="0 0 24 24" width="24" xmlns="http://www.w3.org/2000/svg"><path d="m275 47c6.627 0 12 5.373 12 12s-5.373 12-12 12-12-5.373-12-12 5.373-12 12-12zm-2.1 7h-.053c-.31.007-1.947.104-3.66 1.393l-.012.023-.062.12-.066.133c-.44.9-1.761 3.898-1.761 7.458 0 0 1.11 1.923 4.029 2.016 0 0 .488-.597.885-1.101-1.678-.504-2.312-1.565-2.312-1.565s.132.092.37.225c.013.013.026.027.053.04.04.026.079.04.118.066.33.186.661.332.965.451.541.212 1.189.425 1.942.57.99.186 2.153.253 3.42.014.622-.106 1.256-.292 1.916-.57.462-.173.978-.425 1.52-.783 0 0-.661 1.087-2.392 1.578l.086.11.175.217c.318.396.611.748.611.748 2.92-.093 4.042-2.016 4.042-2.016 0-3.56-1.32-6.557-1.761-7.458l-.066-.133c-.048-.094-.075-.143-.075-.143-1.712-1.29-3.349-1.386-3.66-1.392h-.052l-.185.211c2.246.69 3.29 1.685 3.29 1.685-1.374-.756-2.722-1.127-3.976-1.273-.888-.099-1.784-.09-2.669.026-.08 0-.145.013-.224.027-.463.04-1.586.212-2.999.835-.489.226-.78.385-.78.385s1.097-1.048 3.475-1.738zm-.37 4.948c.753 0 1.36.663 1.347 1.472 0 .81-.594 1.473-1.347 1.473-.74 0-1.347-.663-1.347-1.473 0-.809.594-1.472 1.347-1.472zm4.821 0c.753 0 1.348.663 1.348 1.472 0 .81-.595 1.473-1.348 1.473-.74 0-1.347-.663-1.347-1.473 0-.809.594-1.472 1.347-1.472z" fill="#828589" fill-rule="evenodd" transform="translate(-263 -47)"/></svg>