<svg xmlns="http://www.w3.org/2000/svg" width="24" height="24" viewBox="0 0 24 24">
    <g fill="none" fill-rule="evenodd">
        <g>
            <g transform="translate(-79 -705) translate(79 705)">
                <circle cx="12" cy="12" r="12" fill="#DEDEDE"/>
                <path fill="#A8ACB0" fill-rule="nonzero" d="M8.527 14.668c.412.154.805.324 1.214.45.748.253 1.548.328 2.333.221.225-.037.442-.108.643-.211.285-.132.484-.39.531-.69.048-.3-.062-.603-.294-.81-.243-.233-.538-.412-.862-.524-.54-.206-1.088-.39-1.625-.6-.555-.203-1.064-.505-1.503-.888-.748-.655-1.052-1.654-.79-2.591.24-1.013 1.019-1.83 2.05-2.151.288-.109.591-.179.907-.273V5h1.755v1.5c.907.015 1.8.21 2.625.57l-.536 1.922c-.291-.111-.566-.229-.85-.32-.727-.248-1.506-.322-2.27-.217-.22.035-.43.112-.618.227-.235.13-.387.364-.403.623-.016.26.105.51.323.665.297.215.62.395.963.536.627.268 1.274.482 1.897.753.613.246 1.139.655 1.515 1.179.805 1.274.55 2.915-.607 3.91-.565.45-1.246.75-1.972.866-.114.02-.14.061-.14.164V19h-1.77v-1.579c-.58-.1-1.138-.165-1.68-.295-.433-.1-.847-.288-1.27-.435-.035-.004-.065-.023-.08-.053-.017-.029-.017-.064 0-.093.167-.615.33-1.231.497-1.846.004-.011.01-.022.017-.031z"/>
            </g>
        </g>
    </g>
</svg>
