<svg height="24" viewBox="0 0 24 24" width="24" xmlns="http://www.w3.org/2000/svg"><path d="m343 47c6.627 0 12 5.373 12 12s-5.373 12-12 12-12-5.373-12-12 5.373-12 12-12zm2.482 12.756-1.718 1.792c-.093.063-.155.132-.246.174-.146.069-.306.127-.467.124-.161-.002-.32-.066-.464-.138-.073-.037-.112-.073-.197-.145l-1.74-1.808-1.828 1.8-2.076 2.038-.263.259c.138.09.296.148.468.148h12.099c.206 0 .392-.08.548-.207l-.131-.134-2.077-2.037zm-9.138-4.504c-.212.203-.344.507-.344.852v6.785c0 .278.088.531.234.726l.278-.267 2.069-2.037 1.835-1.8-.037-.045-2.01-2.096-2.01-2.104zm13.378.067-1.959 2.051-2.003 2.097-.037.037 1.908 1.874 2.07 2.037.124.118c.11-.18.175-.404.175-.644v-6.785c0-.307-.105-.585-.278-.785zm-.672-.319h-12.1c-.11 0-.215.02-.314.06l1.981 2.066 2.004 2.104.036.044.059.06.058.059.117.126 1.718 1.785c.029.018.112.095.176.128.084.043.174.082.267.085.101.004.204-.026.294-.07.068-.034.098-.081.177-.143l1.988-2.081 2.01-2.097 1.938-2.022c-.126-.069-.266-.105-.41-.104z" fill="#828589" fill-rule="evenodd" transform="translate(-331 -47)"/></svg>