<svg height="28" viewBox="0 0 28 28" width="28" xmlns="http://www.w3.org/2000/svg"><path d="m54 20c7.732 0 14 6.268 14 14s-6.268 14-14 14-14-6.268-14-14 6.268-14 14-14zm6.182 15.226c-.103-.114-.274-.137-.406-.06l-6.03 3.56-6.028-3.56-.068-.03c-.118-.036-.25-.005-.338.09-.105.114-.116.284-.027.41l6.195 8.726.009.008.009.007c.013.016.025.03.04.042.007.006.011.015.019.02.005.004.014.003.02.007.01.006.02.015.031.02.042.02.088.033.14.033l.049-.004c.031-.005.06-.015.089-.029.011-.005.02-.014.03-.02.007-.004.015-.003.021-.007.008-.005.013-.014.02-.02.014-.013.027-.026.04-.042.004-.006.012-.008.017-.015l6.197-8.726.035-.066c.046-.115.023-.25-.064-.344zm-11.477 1.282 4.715 2.785v3.856zm10.083 0-4.715 6.64v-3.855zm-5.041-13.008c-.008 0-.014.004-.022.004l-.04.004c-.014.003-.028.008-.043.013-.015.004-.03.01-.044.018-.007.004-.014.004-.02.008-.005.002-.006.006-.01.008-.012.007-.022.016-.032.026-.013.012-.025.022-.036.036-.009.01-.018.02-.024.03-.003.004-.008.006-.01.01l-6.248 10.276-.023.045c-.012.031-.018.063-.02.096l-.005.011.004.012.003.012c.001.043.01.083.027.122.006.013.01.025.018.037.026.045.06.084.106.113l.004.002 6.25 3.661.015.004c.045.023.094.04.15.04.054 0 .104-.017.15-.04l.018-.004 6.137-3.662.044-.033c.026-.024.047-.052.065-.081.008-.013.013-.024.018-.037.017-.04.026-.08.027-.122 0-.009.006-.016.005-.024 0-.005-.003-.007-.004-.011-.004-.048-.015-.095-.042-.14l-6.138-10.274-.009-.01-.012-.016-.013-.015-.036-.037-.03-.024-.01-.01-.023-.008-.021-.01-.023-.008c-.013-.005-.026-.01-.04-.013s-.027-.004-.041-.004zm-.327 8.292v5.4l-5.212-3.052zm.653.003 5.11 2.344-5.11 3.049zm-.653-6.803v6.083l-5.095 2.296zm.653.018 4.99 8.356-4.99-2.29z" fill="#fff" fill-rule="evenodd" transform="translate(-40 -20)"/></svg>