<svg height="20" viewBox="0 0 20 20" width="20" xmlns="http://www.w3.org/2000/svg"><g fill="none" fill-rule="evenodd"><circle cx="10" cy="10" fill="#f0b90b" r="10"/><path d="m14.126 10.833c.094-.055.216-.038.29.042.074.082.083.204.02.293l-4.426 6.234c-.003.004-.01.006-.013.01-.008.011-.018.02-.028.03l-.014.015c-.004.003-.01.001-.014.004l-.023.015c-.03.014-.062.023-.098.023-.037 0-.07-.008-.1-.023-.008-.004-.014-.01-.022-.015-.005-.003-.01-.001-.015-.004-.005-.004-.008-.01-.013-.015l-.015-.014-.014-.016c-.003-.004-.01-.006-.013-.01l-4.424-6.234c-.064-.09-.056-.211.019-.293.075-.08.196-.097.29-.042l4.306 2.543zm-7.908.958 3.367 4.744v-2.755zm7.202 0-3.368 1.99v2.753zm-3.601-9.291.016.003c.01 0 .02 0 .03.003l.028.009.031.013c.006.003.011.003.016.006l.008.007.021.017.026.026.018.023c.002.003.005.004.006.007l4.385 7.34c.019.03.027.064.03.099 0 .003.003.004.003.007 0 .006-.004.012-.004.018-.001.03-.007.059-.02.087-.003.01-.007.017-.012.026-.02.032-.043.061-.078.082l-4.384 2.615c-.004.002-.009.001-.013.003-.033.017-.068.03-.107.03-.04 0-.075-.013-.107-.03-.003-.001-.007 0-.011-.002l-4.464-2.615-.003-.002c-.033-.02-.057-.049-.076-.08l-.012-.027c-.012-.028-.019-.057-.02-.087 0-.006-.004-.012-.005-.017.006-.043.015-.077.034-.109l4.464-7.34.007-.007c.004-.008.01-.014.017-.021.008-.01.016-.018.025-.026l.023-.019c.003 0 .004-.004.007-.006.005-.003.01-.003.015-.005.01-.006.02-.01.032-.013l.03-.01c.01 0 .02 0 .029-.002.006 0 .01-.003.015-.003zm-.233 5.923-3.723 1.677 3.723 2.18v-3.856zm.466.002v3.852l3.65-2.177zm-.466-4.859-3.64 5.985 3.64-1.64zm.466.013v4.333l3.565 1.635z" fill="#fff"/></g></svg>