<svg height="24" viewBox="0 0 24 24" width="24" xmlns="http://www.w3.org/2000/svg"><path d="m229 59.183c0 5.725 3.87 10.477 9.09 11.817-.06-.152-.09-.366-.09-.579v-2.071h-1.5c-.81 0-1.56-.365-1.89-1.036-.39-.731-.45-1.858-1.44-2.559-.3-.244-.06-.487.27-.457.63.182 1.14.61 1.62 1.248.48.64.69.792 1.59.792.42 0 1.079-.03 1.68-.122.33-.853.9-1.614 1.59-1.98-4.02-.487-5.94-2.497-5.94-5.239 0-1.188.51-2.315 1.35-3.29-.27-.944-.63-2.893.12-3.654 1.8 0 2.88 1.188 3.15 1.492.9-.305 1.89-.488 2.91-.488 1.05 0 2.01.183 2.91.488.269-.305 1.35-1.492 3.149-1.492.72.73.39 2.71.09 3.654.84.945 1.32 2.102 1.32 3.29 0 2.742-1.89 4.752-5.88 5.178 1.11.579 1.891 2.223 1.891 3.442v2.774c0 .092-.03.183-.03.274 4.68-1.644 8.04-6.152 8.04-11.482 0-6.731-5.37-12.183-12-12.183s-12 5.452-12 12.183z" fill="#828589" transform="translate(-229 -47)"/></svg>