<svg height="24" viewBox="0 0 24 24" width="24" xmlns="http://www.w3.org/2000/svg"><path d="m88 48c6.627 0 12 5.373 12 12s-5.373 12-12 12-12-5.373-12-12 5.373-12 12-12zm-3.34 18.105c-.47 0-.85.38-.85.848s.38.847.85.847.85-.38.85-.847c0-.468-.38-.848-.85-.848zm6.69 0c-.47 0-.85.38-.85.848s.38.847.85.847.85-.38.85-.847c0-.468-.38-.848-.85-.848zm-6.715-13.905c-.23 0-.427.081-.59.244s-.245.362-.245.597v11.13c0 .235.082.434.245.597s.36.244.59.244c.236 0 .436-.081.599-.244s.245-.362.245-.597v-3.931c0-.342.066-.665.197-.97.13-.304.312-.57.542-.8s.497-.41.8-.54c.302-.131.627-.197.975-.197.343 0 .667.067.972.2.306.134.572.314.8.54.227.228.408.493.542.798.134.304.2.627.2.969v3.931c0 .235.082.434.246.597.163.163.36.244.59.244s.427-.081.59-.244c.164-.163.248-.362.254-.597v-3.931c0-.577-.113-1.12-.338-1.63s-.53-.953-.916-1.33c-.385-.376-.831-.673-1.337-.892s-1.04-.328-1.603-.328c-.964 0-1.802.275-2.514.824v-3.843c-.005-.235-.09-.434-.253-.597s-.36-.244-.59-.244z" fill="#fff" fill-rule="evenodd" transform="translate(-76 -48)"/></svg>