<svg xmlns="http://www.w3.org/2000/svg" width="72" height="72" viewBox="0 0 72 72">
    <g fill="none" fill-rule="evenodd">
        <g fill="#FC6F6F">
            <g>
                <path d="M36 0c19.882 0 36 16.118 36 36S55.882 72 36 72 0 55.882 0 36 16.118 0 36 0zm-9.298 54.786c-1.476 0-2.672 1.167-2.672 2.607 0 1.44 1.196 2.607 2.672 2.607 1.475 0 2.671-1.167 2.671-2.607 0-1.44-1.196-2.607-2.671-2.607zm21.027 0c-1.476 0-2.672 1.167-2.672 2.607 0 1.44 1.196 2.607 2.672 2.607 1.475 0 2.671-1.167 2.671-2.607 0-1.44-1.196-2.607-2.671-2.607zM26.626 12c-.724 0-1.343.25-1.856.751-.513.501-.77 1.113-.77 1.836v34.248c0 .722.257 1.334.77 1.835.513.501 1.132.752 1.856.752.74 0 1.367-.25 1.88-.752.514-.5.77-1.113.77-1.835V36.737c0-1.051.207-2.045.62-2.981.411-.936.98-1.758 1.703-2.464.724-.706 1.561-1.26 2.512-1.663.951-.402 1.974-.604 3.068-.604 1.077 0 2.095.206 3.055.616.96.41 1.796.965 2.512 1.663.715.698 1.283 1.516 1.704 2.452.42.936.631 1.93.631 2.981v12.098c0 .722.257 1.334.77 1.835.513.501 1.132.752 1.856.752.723 0 1.342-.25 1.855-.752.514-.5.779-1.113.796-1.835V36.737c0-1.774-.354-3.445-1.06-5.014-.708-1.568-1.667-2.932-2.879-4.09s-2.613-2.074-4.203-2.747c-1.591-.673-3.27-1.01-5.037-1.01-3.03 0-5.664.846-7.902 2.538V14.587c-.017-.723-.282-1.335-.796-1.836-.513-.5-1.132-.751-1.855-.751z" transform="translate(-775 -140) translate(775 140)"/>
            </g>
        </g>
    </g>
</svg>
