<svg height="20" viewBox="0 0 20 20" width="20" xmlns="http://www.w3.org/2000/svg"><g fill="none" fill-rule="evenodd"><circle cx="10" cy="10" fill="#f0b90b" r="10"/><path d="m7.216 15.088c.392 0 .709.316.709.706s-.317.706-.709.706c-.39 0-.708-.316-.708-.706s.317-.706.708-.706zm5.576 0c.39 0 .708.316.708.706s-.317.706-.708.706c-.392 0-.709-.316-.709-.706s.317-.706.709-.706zm-5.596-11.588c.192 0 .356.068.492.204.136.135.207.3.211.497v3.203c.594-.459 1.292-.688 2.095-.688.469 0 .914.092 1.336.274s.793.43 1.114.744c.322.314.576.683.764 1.108.187.425.28.877.28 1.358v3.276c-.004.196-.074.362-.21.497-.136.136-.3.204-.492.204s-.356-.068-.492-.204c-.136-.135-.204-.301-.204-.497v-3.276c0-.285-.056-.554-.168-.808-.111-.253-.262-.475-.452-.664s-.411-.339-.666-.45c-.254-.111-.524-.167-.81-.167-.29 0-.56.055-.813.164-.252.108-.474.259-.666.45s-.343.414-.452.667c-.11.254-.164.523-.164.808v3.276c0 .196-.068.362-.204.497-.136.136-.302.204-.499.204-.192 0-.356-.068-.492-.204-.136-.135-.204-.301-.204-.497v-9.275c0-.196.068-.362.204-.497.136-.136.3-.204.492-.204z" fill="#fff" fill-rule="nonzero"/></g></svg>