<svg height="30" viewBox="0 0 30 30" width="30" xmlns="http://www.w3.org/2000/svg"><g fill="none" fill-rule="evenodd"><path d="m0 0h30v30h-30z" fill="none"/><path d="m25.086.202h-13.612v18.268h18.269v-13.515c.007-2.567-2.09-4.753-4.657-4.753zm-17.792 0h-2.284c-2.566 0-4.76 2.09-4.76 4.76v2.284h7.044zm-7.044 11.32h7.044v7.045h-7.044v-7.044zm22.456 18.269h2.284c2.566 0 4.76-2.09 4.76-4.76v-2.277h-7.044zm-11.232-7.037h7.044v7.044h-7.044zm-11.224 0v2.284c0 2.566 2.09 4.76 4.76 4.76h2.284v-7.044z" fill="#000" fill-rule="nonzero"/></g></svg>