<svg height="45" viewBox="0 0 45 45" width="45" xmlns="http://www.w3.org/2000/svg"><g fill="none" fill-rule="evenodd"><path d="m44.444 22.322c0 12.274-9.948 22.222-22.222 22.222-12.272 0-22.222-9.948-22.222-22.222 0-12.272 9.95-22.222 22.222-22.222 12.274 0 22.222 9.95 22.222 22.222" fill="#ffca28"/><path d="m34.348 26.211c0 6.7-5.427 12.126-12.126 12.126-6.697 0-12.126-5.427-12.126-12.126z" fill="#b71c1c"/><path d="m16.16 29.193v10.851c0 2.475 2.613 4.5 5.805 4.5h.516c3.192 0 5.804-2.025 5.804-4.5v-10.85h-12.125z" fill="#74e063"/><path d="m26.896 40.045c0 1.686-2.022 3.11-4.415 3.11h-.516c-2.394 0-4.417-1.424-4.417-3.11v-9.463h9.348zm-9.904-10.018v10.018c0 1.987 2.278 3.666 4.973 3.666h.516c2.694 0 4.97-1.68 4.97-3.666v-10.018h-10.458z" fill="#4fb340"/><path d="m34.223 18.455c0-2.05-1.332-2.681-3.018-3.48l-.914-.431c-1.69-.8-1.845-.938-1.845-1.628 0-1.21 1.429-1.306 1.867-1.306.548 0 1.82.13 1.82 1.306 0 .564.459 1.024 1.024 1.024s1.024-.46 1.024-1.024c0-1.69-1.113-2.902-2.845-3.244v-.965c0-.565-.459-1.023-1.024-1.023s-1.024.458-1.024 1.023v.968c-1.74.35-2.89 1.578-2.89 3.241 0 2.051 1.333 2.681 3.018 3.478l.912.433c1.693.8 1.847.938 1.847 1.628 0 1.191-1.425 1.285-1.862 1.285-.56 0-1.867-.125-1.867-1.285 0-.564-.459-1.024-1.024-1.024-.564 0-1.024.46-1.024 1.024 0 1.683 1.13 2.89 2.89 3.225v1.09c0 .565.459 1.025 1.024 1.025s1.024-.46 1.024-1.024v-1.088c1.758-.339 2.887-1.545 2.887-3.228" fill="#263238"/><path d="m24.444 37.856c0-1.164-.756-1.523-1.714-1.976l-.519-.246c-.96-.454-1.048-.532-1.048-.924 0-.688.812-.742 1.06-.742.312 0 1.035.073 1.035.742 0 .32.26.581.581.581s.582-.26.582-.581c0-.96-.633-1.648-1.616-1.843v-.548c0-.321-.26-.581-.582-.581-.32 0-.581.26-.581.581v.55c-.989.199-1.642.896-1.642 1.84 0 1.166.757 1.524 1.714 1.976l.518.246c.962.455 1.05.533 1.05.925 0 .677-.81.73-1.058.73-.319 0-1.061-.071-1.061-.73 0-.32-.26-.581-.581-.581-.32 0-.582.26-.582.581 0 .956.642 1.641 1.642 1.832v.62c0 .32.26.581.581.581s.582-.261.582-.581v-.618c.999-.193 1.64-.878 1.64-1.834" fill="#4fb340"/><path d="m18.046 18.455c0-2.05-1.33-2.681-3.018-3.48l-.913-.431c-1.69-.8-1.846-.938-1.846-1.628 0-1.21 1.43-1.306 1.868-1.306.548 0 1.82.13 1.82 1.306 0 .564.459 1.024 1.024 1.024s1.024-.46 1.024-1.024c0-1.69-1.114-2.902-2.845-3.244v-.965c0-.565-.459-1.023-1.024-1.023s-1.024.458-1.024 1.023v.968c-1.74.35-2.89 1.578-2.89 3.241 0 2.051 1.332 2.681 3.018 3.478l.912.433c1.693.8 1.847.938 1.847 1.628 0 1.191-1.426 1.285-1.862 1.285-.56 0-1.868-.125-1.868-1.285 0-.564-.458-1.024-1.023-1.024s-1.024.46-1.024 1.024c0 1.683 1.13 2.89 2.89 3.225v1.09c0 .565.459 1.025 1.024 1.025s1.024-.46 1.024-1.024v-1.088c1.758-.339 2.886-1.545 2.886-3.228" fill="#263238"/></g></svg>