<svg height="18" viewBox="0 0 13 18" width="13" xmlns="http://www.w3.org/2000/svg"><path d="m44.328 20.288h-.537l.001-3.145c0-2.285-1.925-4.143-4.292-4.143-2.366 0-4.291 1.858-4.291 4.143v3.145h-.537c-.923 0-1.672.722-1.672 1.614v7.484c0 .891.748 1.614 1.672 1.614h9.656c.923 0 1.672-.722 1.672-1.614v-7.484c0-.891-.748-1.613-1.672-1.613zm-7.618-3.145c0-1.486 1.252-2.693 2.79-2.693s2.79 1.209 2.79 2.693v3.145h-5.58zm3.645 8.419v2.015c0 .456-.382.825-.855.825-.472 0-.854-.37-.854-.825v-2.015c-.401-.264-.663-.708-.663-1.21 0-.81.68-1.466 1.518-1.466.839 0 1.518.656 1.518 1.465 0 .503-.264.947-.664 1.211z" fill="#000" fill-rule="evenodd" transform="translate(-33 -13)"/></svg>