<svg height="45" viewBox="0 0 45 45" width="45" xmlns="http://www.w3.org/2000/svg"><g fill="none" fill-rule="evenodd"><path d="m44.444 22.322c0 12.274-9.948 22.222-22.222 22.222-12.272 0-22.222-9.948-22.222-22.222 0-12.272 9.949-22.222 22.222-22.222 12.274 0 22.222 9.95 22.222 22.222" fill="#ffca28"/><path d="m25.924 28.721h-7.4c-.193.468-.3.98-.3 1.516 0 2.21 1.79 4 3.998 4 2.21 0 4.001-1.79 4.001-4 0-.536-.108-1.048-.299-1.516" fill="#e53935"/><path d="m25.923 28.721c-.07-.171-.155-.337-.248-.496-.013-.02-.027-.042-.038-.063-.19-.31-.417-.59-.678-.837l-.068-.06c-.13-.118-.267-.23-.413-.33l-.003-.003c-.144-.1-.3-.186-.457-.265-.035-.018-.068-.034-.104-.05-.156-.073-.315-.14-.482-.192l-.013-.004c-.168-.054-.342-.092-.519-.122l-.128-.02c-.18-.025-.363-.042-.55-.042-.186 0-.369.017-.548.042l-.129.02c-.176.03-.351.068-.52.122-.003.002-.007.002-.013.004-.166.053-.325.12-.482.192l-.102.05c-.158.079-.313.166-.458.265 0 .002-.002.003-.003.003-.147.1-.283.212-.412.33l-.068.06c-.262.246-.49.528-.678.837l-.04.063c-.091.159-.176.325-.246.496h7.402z" fill="#fff"/><path d="m12.958 42.236c-1.499 0-2.713-1.214-2.713-2.713v-23.812c0-1.499 1.214-2.713 2.713-2.713s2.713 1.214 2.713 2.713v23.812c0 1.499-1.214 2.713-2.713 2.713" fill="#00b0ff"/><path d="m16.277 17.228c-.415 0-.751-.336-.751-.75 0-1.416-1.152-2.569-2.568-2.569s-2.568 1.153-2.568 2.57c0 .413-.335.749-.75.749-.416 0-.751-.336-.751-.75 0-2.244 1.826-4.07 4.069-4.07s4.07 1.826 4.07 4.07c0 .414-.336.75-.751.75" fill="#263238"/><path d="m31.486 42.236c-1.498 0-2.712-1.214-2.712-2.713v-23.812c0-1.499 1.214-2.713 2.712-2.713 1.499 0 2.713 1.214 2.713 2.713v23.812c0 1.499-1.214 2.713-2.713 2.713" fill="#00b0ff"/><path d="m34.803 17.228c-.413 0-.75-.336-.75-.75 0-1.416-1.152-2.569-2.568-2.569-1.415 0-2.568 1.153-2.568 2.57 0 .413-.334.749-.75.749-.414 0-.75-.336-.75-.75 0-2.244 1.826-4.07 4.068-4.07 2.244 0 4.07 1.826 4.07 4.07 0 .414-.337.75-.752.75" fill="#263238"/></g></svg>