<svg height="38" viewBox="0 0 38 38" width="38" xmlns="http://www.w3.org/2000/svg"><path d="m179 60c10.493 0 19 8.507 19 19s-8.507 19-19 19-19-8.507-19-19 8.507-19 19-19zm-5.067 27.867h-8.81c2.925 4.57 8.047 7.6 13.877 7.6 1.768 0 3.471-.279 5.068-.795l-.001-6.805h-7.6v2.533h-2.534zm12.667-23.478v8.278h-10.133v3.8l3.8 3.8h-3.8v5.066h10.133v8.278c5.27-2.746 8.867-8.258 8.867-14.611s-3.598-11.865-8.867-14.611zm-7.6-1.856c-9.094 0-16.467 7.373-16.467 16.467 0 2.245.45 4.384 1.263 6.334h10.137v-5.067h-3.8l3.8-3.8v-8.867h2.534v2.533h7.6v-6.805c-1.596-.516-3.299-.795-5.067-.795z" fill="#f0b90b" fill-rule="evenodd" transform="translate(-160 -60)"/></svg>