<svg height="30" viewBox="0 0 122 30" width="122" xmlns="http://www.w3.org/2000/svg"><g fill="none" fill-rule="evenodd"><path d="m40.35 16.86v-1.37l-1.28-.213v-4.506h.04l3.963 6.088h2.305v-8.13l1.006-.214v-1.375h-4.35v1.375l1.273.214v4.633h-.04l-3.89-6.222h-3.377v1.375l1 .214v6.549l-1 .213v1.369zm14.24 0v-2.857h-1.746l-.053 1.048h-2.71v-2.317h3.096v-1.794h-3.097v-1.997h2.584l.054 1h1.765v-2.803h-7.746v1.375l1.005.214v6.549l-1.005.213v1.369h7.852zm7.186 0 2.717-8.238.946-.107v-1.375h-4.063v1.375l1.04.134-1.686 5.48-.086.361h-.04l-.093-.38-1.739-5.461.866-.134v-1.375h-4.35v1.375l.92.107 3.037 8.238zm11.869 0v-2.857h-1.745l-.053 1.048h-2.711v-2.317h3.097v-1.794h-3.097v-1.997h2.584l.053 1h1.765v-2.803h-7.746v1.375l1.006.214v6.549l-1.006.213v1.369zm5.215 0v-1.37l-1.006-.213v-1.943l1.59.021 1.208 3.504h2.824v-1.362l-.92-.234-1.014-2.484.15-.102c.3-.215.556-.468.767-.76l.121-.178c.309-.49.463-1.02.463-1.59 0-.618-.153-1.153-.46-1.605-.306-.451-.741-.8-1.305-1.044-.564-.245-1.23-.367-1.998-.367h-4.77v1.381l1.007.214v6.549l-1.006.213v1.369h4.35zm.446-5.32h-1.452v-2.61h1.426c.462 0 .817.125 1.065.376.25.252.373.585.373.998 0 .4-.122.707-.366.918-.244.212-.593.317-1.046.317zm12.162 5.32v-3.151h-1.785l-.053 1.355h-2.304v-6.334l1.225-.214v-1.376h-4.569v1.375l1.006.214v6.549l-1.006.213v1.369zm5.216.14c.652 0 1.26-.123 1.825-.37.563-.247 1.056-.594 1.478-1.039s.75-.966.986-1.565c.235-.599.353-1.25.353-1.953v-.153c0-.699-.118-1.346-.353-1.943-.235-.596-.565-1.117-.99-1.562-.423-.445-.917-.792-1.481-1.041-.564-.25-1.175-.374-1.832-.374-.67 0-1.285.125-1.845.374-.56.25-1.044.596-1.455 1.041-.41.445-.728.966-.952 1.562-.225.597-.337 1.244-.337 1.943v.153c0 .704.112 1.354.337 1.953.224.599.542 1.12.955 1.565s.9.792 1.462 1.039 1.178.37 1.849.37zm0-1.776c-.516 0-.94-.13-1.276-.39-.335-.26-.584-.628-.746-1.102s-.243-1.027-.243-1.659v-.166c0-.632.08-1.182.24-1.65.16-.467.405-.83.736-1.087.33-.259.756-.388 1.275-.388.493 0 .913.132 1.26.394.345.263.61.629.795 1.098.184.47.276 1.014.276 1.633v.166c0 .632-.09 1.184-.273 1.656-.182.472-.446.839-.792 1.101-.347.263-.764.394-1.252.394zm9.516 1.776c.737 0 1.384-.106 1.939-.317s.988-.519 1.298-.921c.311-.403.467-.892.467-1.466 0-.836-.286-1.498-.856-1.986-.57-.487-1.407-.893-2.508-1.218-.462-.178-.821-.335-1.079-.47-.257-.136-.437-.272-.54-.408-.102-.135-.153-.29-.153-.464 0-.213.061-.391.184-.534.122-.142.288-.249.5-.32.21-.071.45-.107.722-.107.315 0 .612.031.892.094.28.062.495.13.646.206l.273 1.302h1.732v-2.343c-.466-.356-1.003-.622-1.612-.798-.608-.175-1.307-.254-2.098-.237-.692.014-1.307.136-1.845.368-.537.23-.959.548-1.265.95-.307.404-.46.874-.46 1.413 0 .56.13 1.03.39 1.408s.656.706 1.189.982c.533.275 1.214.547 2.044.814.369.142.662.281.88.417.217.136.374.28.47.43.095.152.142.323.142.515 0 .2-.05.371-.153.514-.102.142-.253.25-.453.324-.2.073-.448.11-.746.11-.426 0-.819-.055-1.179-.164s-.61-.244-.752-.404l-.2-1.295h-1.805v2.524c.608.418 1.219.703 1.832.854.612.151 1.314.227 2.104.227zm12.082-.14v-2.857h-1.745l-.053 1.048h-2.71v-2.317h3.096v-1.794h-3.097v-1.997h2.585l.053 1h1.765v-2.803h-7.746v1.375l1.005.214v6.549l-1.005.213v1.369zm3.717 0v-1.936h-2.325v1.936h2.326z" fill="#030304" fill-rule="nonzero"/><path d="m38.716 27.728v-.655l-.847-.145v-3.363c.108-.233.262-.413.462-.541.201-.128.457-.192.769-.192.37 0 .653.122.849.366.195.244.293.63.293 1.157v2.573l-.846.145v.655h2.715v-.655l-.846-.145v-2.77c.035-.382.16-.698.377-.95.216-.25.502-.376.859-.376.374 0 .656.115.846.345s.286.623.286 1.178v2.573l-.847.145v.655h2.721v-.655l-.846-.145v-2.563c0-.79-.166-1.382-.499-1.775-.332-.393-.785-.59-1.36-.59-.388 0-.727.094-1.018.28-.29.188-.524.44-.7.76-.136-.347-.337-.607-.606-.78-.268-.173-.589-.26-.963-.26s-.702.073-.986.218c-.284.146-.516.352-.696.619l-.068-.733h-1.765v.66l.846.146v4.018l-.846.145v.655zm10.01.11c.516 0 .961-.122 1.335-.364.374-.243.663-.58.867-1.011.204-.432.307-.927.307-1.484v-.115c0-.558-.103-1.052-.307-1.481-.204-.43-.494-.768-.87-1.014-.375-.246-.823-.369-1.342-.369-.512 0-.956.123-1.332.37-.375.245-.665.584-.87 1.015-.204.432-.306.925-.306 1.48v.114c0 .554.102 1.047.307 1.478.204.432.494.77.87 1.014.375.244.822.367 1.342.367zm0-.801c-.328 0-.604-.09-.828-.268-.223-.178-.39-.422-.5-.733-.111-.31-.167-.662-.167-1.057v-.115c0-.395.056-.747.166-1.058.111-.31.277-.554.499-.733.221-.178.495-.267.82-.267.33 0 .604.089.826.267.221.179.388.423.5.733.113.31.17.663.17 1.058v.115c0 .395-.057.747-.17 1.057-.112.31-.278.555-.498.733-.22.179-.492.268-.817.268zm6.013.691v-.655l-.846-.145v-3.301c.135-.246.316-.44.543-.582.226-.142.487-.213.781-.213.402 0 .7.104.896.312.195.208.293.56.293 1.055v2.729l-.846.145v.655h2.716v-.655l-.847-.145v-2.75c0-.742-.166-1.29-.498-1.645-.333-.355-.802-.533-1.407-.533-.36 0-.682.082-.964.247s-.516.396-.703.694l-.073-.837h-1.76v.66l.846.146v4.018l-.846.145v.655zm6.74.11c.464 0 .861-.067 1.192-.2.33-.134.596-.298.797-.492l-.4-.665c-.19.173-.416.31-.677.408-.262.099-.566.148-.912.148-.315 0-.585-.08-.81-.24-.225-.158-.397-.378-.516-.657-.12-.279-.183-.598-.19-.959l.016-.026h3.645v-.64c0-.509-.087-.951-.26-1.327s-.43-.668-.771-.876-.764-.312-1.27-.312c-.432 0-.831.122-1.196.366-.366.245-.658.577-.878.999-.22.42-.33.898-.33 1.432v.228c0 .555.105 1.043.315 1.466.209.423.506.753.89.99.384.238.836.357 1.355.357zm1.122-3.483h-2.591l-.01-.026c.037-.291.117-.551.238-.78s.275-.41.462-.543c.187-.134.395-.2.623-.2.284 0 .52.061.71.184.188.123.33.291.425.504.095.214.143.455.143.726zm2.918 5.645c.301 0 .558-.06.771-.182.213-.121.393-.288.54-.502.147-.213.273-.454.376-.725l2.212-5.744.582-.083v-.66h-2.31v.66l.716.104-1.298 3.545h-.031l-.265-.733-1.096-2.812.68-.104v-.66h-2.356v.66l.602.083 1.99 4.767-.245.593c-.118.287-.245.514-.382.68-.136.167-.314.25-.532.25-.038 0-.109-.002-.213-.008-.104-.005-.185-.011-.244-.018l-.104.806c.07.017.168.035.296.054.128.02.232.029.312.029z" fill="#828589" fill-rule="nonzero"/><path d="m15 0c8.284 0 15 6.716 15 15s-6.716 15-15 15-15-6.716-15-15 6.716-15 15-15zm-4 22h-6.956c2.31 3.608 6.354 6 10.956 6 1.396 0 2.74-.22 4-.627v-5.373h-6v2h-2zm10-18.535v6.535h-8v3l3 3h-3v4h8v6.535c4.16-2.168 7-6.52 7-11.535s-2.84-9.367-7-11.535zm-6-1.465c-7.18 0-13 5.82-13 13 0 1.772.355 3.461.997 5h8.003v-4h-3l3-3v-7h2v2h6v-5.373c-1.26-.407-2.603-.627-4-.627z" fill="#f0b90b"/></g></svg>