<svg height="30" viewBox="0 0 30 30" width="30" xmlns="http://www.w3.org/2000/svg"><g fill="none" fill-rule="evenodd"><path d="m0 0h30v30h-30z" fill="none"/><g fill-rule="nonzero" stroke-linecap="round" stroke-linejoin="round" stroke-width=".117"><path d="m28.423 1.18-11.634 8.64 2.151-5.098z" fill="#e2761b" stroke="#e2761b"/><path d="m1.565 1.18 11.541 8.722-2.046-5.18zm22.672 20.029-3.098 4.747 6.629 1.824 1.906-6.466zm-23.899.105 1.894 6.466 6.629-1.824-3.098-4.747z" fill="#e4761b" stroke="#e4761b"/><path d="m8.487 13.188-1.847 2.794 6.583.292-.234-7.073zm13.014 0-4.56-4.069-.152 7.155 6.571-.292zm-12.64 12.768 3.952-1.929-3.414-2.666zm8.314-1.929 3.964 1.929-.55-4.595z" fill="#e4761b" stroke="#e4761b"/><path d="m21.139 25.956-3.964-1.929.316 2.584-.036 1.087zm-12.278 0 3.684 1.742-.024-1.087.292-2.584z" fill="#d7c1b3" stroke="#d7c1b3"/><path d="m12.603 19.654-3.297-.971 2.327-1.064zm4.782 0 .971-2.035 2.338 1.064z" fill="#233447" stroke="#233447"/><path d="m8.861 25.956.562-4.747-3.66.105zm11.716-4.747.562 4.747 3.098-4.642zm2.783-5.227-6.571.292.608 3.38.97-2.035 2.339 1.064zm-14.055 2.701 2.338-1.064.959 2.035.62-3.38-6.583-.292z" fill="#cd6116" stroke="#cd6116"/><path d="m6.64 15.982 2.759 5.379-.093-2.678zm14.066 2.701-.117 2.678 2.771-5.379zm-7.483-2.409-.62 3.38.772 3.987.175-5.25zm3.566 0-.316 2.105.14 5.262.784-3.987z" fill="#e4751f" stroke="#e4751f"/><path d="m17.397 19.654-.784 3.987.562.386 3.414-2.666.117-2.678zm-8.091-.971.093 2.678 3.414 2.666.562-.386-.772-3.987z" fill="#f6851b" stroke="#f6851b"/><path d="m17.455 27.698.036-1.087-.293-.258h-4.408l-.269.258.024 1.087-3.684-1.742 1.287 1.052 2.607 1.812h4.478l2.619-1.812 1.287-1.052z" fill="#c0ad9e" stroke="#c0ad9e"/><path d="m17.175 24.027-.562-.386h-3.238l-.562.386-.292 2.584.269-.258h4.408l.292.258z" fill="#161616" stroke="#161616"/><path d="m28.914 10.382.994-4.771-1.485-4.431-11.248 8.348 4.326 3.66 6.115 1.789 1.357-1.579-.585-.421.935-.853-.725-.562.936-.713zm-28.822-4.771.994 4.771-.631.467.935.713-.713.562.935.853-.584.421 1.344 1.579 6.115-1.789 4.326-3.66-11.248-8.348z" fill="#763d16" stroke="#763d16"/><path d="m27.616 14.977-6.115-1.789 1.859 2.794-2.771 5.379 3.648-.047h5.437zm-19.129-1.789-6.115 1.789-2.034 6.337h5.425l3.636.047-2.759-5.379zm8.302 3.086.386-6.746 1.777-4.806h-7.892l1.753 4.806.41 6.746.14 2.128.012 5.239h3.238l.024-5.239z" fill="#f6851b" stroke="#f6851b"/></g></g></svg>