<svg height="40" viewBox="0 0 40 40" width="40" xmlns="http://www.w3.org/2000/svg"><g fill="none" fill-rule="evenodd"><circle cx="20" cy="20" fill="#f0b90b" r="20"/><path d="m13.846 30.77v3.076h3.077v-3.076h9.23l.002 8.266c-1.94.627-4.008.965-6.155.965-6.933 0-13.042-3.528-16.63-8.886l-.226-.344h10.702zm15.385-28.518c6.4 3.338 10.769 10.032 10.769 17.748 0 7.573-4.209 14.163-10.415 17.558l-.354.189v-10.055h-12.308v-6.154h4.615l-4.615-4.615v-4.615h12.308v-10.055zm-9.231-2.252c1.952 0 3.84.28 5.623.801l.532.164-.001 8.266h-9.23v-3.077h-3.078v10.77l-4.615 4.614h4.615v6.154l-12.313.001c-.988-2.368-1.533-4.967-1.533-7.693 0-11.046 8.954-20 20-20z" fill="#000"/></g></svg>