<svg xmlns="http://www.w3.org/2000/svg" width="20" height="20" viewBox="0 0 20 20">
    <g fill="none" fill-rule="evenodd">
        <g fill="#f0b90b" fill-rule="nonzero">
            <path d="M302 438c-5.523 0-10 4.477-10 10s4.477 10 10 10 10-4.477 10-10-4.477-10-10-10zm6.074 16.074c-.788.789-1.708 1.41-2.732 1.842-1.056.448-2.182.675-3.342.675-1.16 0-2.286-.227-3.344-.675-1.024-.433-1.942-1.053-2.732-1.842-.789-.788-1.41-1.708-1.842-2.732-.446-1.056-.673-2.182-.673-3.342 0-1.16.227-2.286.675-3.344.433-1.024 1.053-1.942 1.842-2.732.788-.789 1.708-1.41 2.732-1.842 1.056-.446 2.182-.673 3.342-.673 1.16 0 2.286.227 3.344.675 1.024.433 1.942 1.053 2.732 1.842.789.788 1.41 1.708 1.842 2.732.446 1.056.673 2.182.673 3.342 0 1.16-.227 2.286-.675 3.344-.433 1.022-1.051 1.942-1.842 2.73zm-2.168-6.342l-5.693-4.844c-.082-.072-.182-.105-.28-.105-.21 0-.41.147-.41.372v9.688c0 .224.2.372.41.372.098 0 .198-.031.28-.105l5.693-4.844c.166-.147.166-.387 0-.534z" transform="translate(-292 -438)"/>
        </g>
    </g>
</svg>
