<svg xmlns="http://www.w3.org/2000/svg" width="16" height="16" viewBox="0 0 16 16">
    <g fill="none" fill-rule="evenodd">
        <g fill="#6D7278" fill-rule="nonzero">
            <g>
                <g>
                    <path d="M332 19c-4.419 0-8 3.581-8 8 0 4.419 3.581 8 8 8 4.419 0 8-3.581 8-8 0-4.419-3.581-8-8-8zm-.102 12.697c-.373 0-.676-.303-.676-.677 0-.373.303-.676.676-.676.374 0 .677.303.677.676 0 .374-.303.677-.677.677zm2.904-6.588c-.04.724-.261 1.294-1.37 2.403-.563.563-.918.985-.954 1.355-.028.29-.273.508-.56.508l-.055-.003c-.31-.03-.535-.306-.505-.616.076-.78.648-1.41 1.278-2.039 1.008-1.008 1.025-1.328 1.042-1.667.02-.395-.125-.778-.412-1.08-.327-.343-.79-.54-1.27-.54h-.002c-.924.001-1.677.754-1.677 1.68 0 .31-.251.562-.562.562-.311 0-.563-.252-.563-.563 0-.748.29-1.451.819-1.98.528-.53 1.231-.823 1.98-.824.789-.002 1.551.323 2.09.89.503.527.758 1.207.72 1.914z" transform="translate(-1064 -1595) translate(200 1281) translate(540 295)"/>
                </g>
            </g>
        </g>
    </g>
</svg>
