<svg height="17" viewBox="0 0 20 17" width="20" xmlns="http://www.w3.org/2000/svg"><path d="m175.254 50.387 4.4-4.343-13.131-.06c-.406-.001-.795-.164-1.08-.452-.286-.288-.445-.677-.443-1.083.002-.405.165-.792.453-1.077s.678-.444 1.084-.442l13.129.059-4.342-4.387c-.286-.288-.446-.677-.444-1.082.001-.405.164-.793.452-1.078.6-.593 1.569-.589 2.164.01l7.141 7.202c.488.492.483 1.286-.01 1.772l-7.217 7.132c-.6.593-1.568.589-2.162-.01-.286-.287-.447-.676-.446-1.082.001-.405.164-.793.452-1.079z" fill="#f0b90b" fill-rule="evenodd" transform="translate(-165 -36)"/></svg>