<svg height="45" viewBox="0 0 45 45" width="45" xmlns="http://www.w3.org/2000/svg" xmlns:xlink="http://www.w3.org/1999/xlink"><mask id="a" fill="#fff"><path d="m0 .056h44.944v44.843h-44.944z" fill="#fff" fill-rule="evenodd"/></mask><g fill="none" fill-rule="evenodd"><path d="m44.944 22.478c0 12.382-10.062 22.421-22.472 22.421-12.41.001-22.472-10.039-22.472-22.421 0-12.383 10.061-22.422 22.472-22.422 12.41 0 22.472 10.039 22.472 22.422" fill="#ffca28" mask="url(#a)" transform="translate(0 .045)"/><path d="m22.47 39.339c-5.943-.001-10.803-4.447-11.234-10.09h22.472c-.434 5.643-5.297 10.089-11.238 10.09" fill="#e53935"/><path d="m6.468 16.964c0-3.469 2.817-6.279 6.293-6.279 3.474 0 6.29 2.81 6.29 6.279 0 3.466-2.816 6.276-6.29 6.276-3.476 0-6.293-2.81-6.293-6.276" fill="#fff"/><path d="m12.755 20.16c0-1.182.96-2.138 2.145-2.138 1.184 0 2.143.956 2.143 2.137 0 1.184-.959 2.14-2.143 2.14-1.185 0-2.145-.956-2.145-2.14" fill="#00b0ff"/><path d="m38.31 16.964c0-3.469-2.817-6.276-6.292-6.276s-6.291 2.807-6.291 6.276c0 3.466 2.816 6.276 6.29 6.276 3.476 0 6.293-2.81 6.293-6.276" fill="#fff"/><path d="m32.024 20.16c0-1.182-.961-2.138-2.147-2.138-1.183 0-2.142.956-2.142 2.137 0 1.184.96 2.14 2.142 2.14 1.186 0 2.147-.956 2.147-2.14" fill="#00b0ff"/><g fill="#263238"><path d="m10.736 9.337c-4.499 0-8.159 3.652-8.159 8.141 0 4.49 3.66 8.142 8.16 8.142 4.498 0 8.158-3.652 8.158-8.142s-3.66-8.141-8.159-8.141m0 18.013c-5.455 0-9.893-4.428-9.893-9.872 0-5.443 4.438-9.873 9.893-9.873 5.457 0 9.895 4.43 9.895 9.873 0 5.444-4.438 9.872-9.895 9.872m23.47-18.013c-4.5 0-8.16 3.652-8.16 8.141 0 4.49 3.66 8.142 8.16 8.142s8.16-3.652 8.16-8.142-3.66-8.141-8.16-8.141m0 18.013c-5.455 0-9.895-4.428-9.895-9.872 0-5.443 4.44-9.873 9.895-9.873 5.456 0 9.895 4.43 9.895 9.873 0 5.444-4.439 9.872-9.895 9.872"/><path d="m24.737 17.062h-4.48c-.479 0-.867-.388-.867-.867 0-.478.388-.866.867-.866h4.48c.48 0 .867.388.867.866 0 .48-.388.867-.867.867"/></g></g></svg>