<svg height="40" viewBox="0 0 40 40" width="40" xmlns="http://www.w3.org/2000/svg"><g fill="none" fill-rule="evenodd"><path d="m0 0h40v40h-40z" fill="none"/><path d="m38.667 40h-38.667v-36.898c0-.75.597-1.36 1.33-1.36.734 0 1.331.61 1.331 1.36v34.18h36.009c.733 0 1.33.609 1.33 1.359-.002.75-.597 1.359-1.333 1.359zm-2-40c-2.831 1.893-6.791 3.905-9.951 4.622l4.033 1.23c-5.8 7.526-11.858 10.495-15.997 11.659-4.674 1.317-7.983.673-8.058.663-.713-.153-1.416.327-1.566 1.055-.15.74.308 1.457 1.033 1.61.086.021 1.106.23 2.811.23 1.597 0 3.78-.185 6.322-.882 3.054-.837 6.035-2.251 8.846-4.197 3.151-2.186 6.089-5.047 8.76-8.526l2.364 3.621c-.268-3.309.466-7.767 1.403-11.085zm-21.926 23.634h-9.367v11.104h9.367v-11.105zm12.027-2.6h-9.368v13.702h9.368v-13.703zm11.9-5.079h-9.368v18.617h9.367v-18.618z" fill="#828589"/></g></svg>