<svg height="24" viewBox="0 0 24 24" width="24" xmlns="http://www.w3.org/2000/svg"><path d="m309 47c6.627 0 12 5.373 12 12s-5.373 12-12 12-12-5.373-12-12 5.373-12 12-12zm5.723 7.803c.104-1.179-1.145-.693-1.145-.693s-.784.322-1.633.673l-.365.151c-.61.253-1.198.5-1.505.632-.74.309-1.975.819-3.26 1.348l-.483.199-.242.1-.48.197c-1.91.786-3.616 1.486-3.616 1.486-1.422.555-.59 1.075-.59 1.075l.228.077.315.106c.45.15 1.11.365 1.712.545 1.04.313 1.595-.034 1.595-.034s2.428-1.596 4.89-3.295c1.735-1.18 1.318-.208.902.208-.901.902-2.393 2.324-3.641 3.468-.555.486-.278.902-.035 1.11.902.763 3.364 2.324 3.503 2.428.173.139 1.144.763 1.734.624s.659-.936.659-.936.396-2.5.789-4.956l.078-.49c.277-1.838.555-3.537.59-4.023z" fill="#828589" transform="translate(-297 -47)"/></svg>