<svg height="40" viewBox="0 0 40 40" width="40" xmlns="http://www.w3.org/2000/svg"><g fill="none" fill-rule="evenodd"><circle cx="20" cy="20" fill="#05b169" r="20"/><path d="m15.247 28.126-5.457-5.676c-.506-.526-.79-1.24-.79-1.983s.284-1.456.79-1.981c1.052-1.093 2.758-1.093 3.81 0l3.418 3.551c.144.148.375.148.519 0l8.863-9.217c1.052-1.093 2.758-1.093 3.81 0 .506.525.79 1.238.79 1.981 0 .744-.284 1.457-.79 1.982l-10.905 11.343c-1.12 1.165-2.937 1.165-4.058 0z" fill="#fff" fill-rule="nonzero"/></g></svg>