<svg height="40" viewBox="0 0 40 40" width="40" xmlns="http://www.w3.org/2000/svg"><g fill="none" fill-rule="evenodd"><circle cx="20" cy="20" fill="#e02020" r="20"/><path d="m24.539 11.8-4.539 4.536-4.537-4.538c-.65-.677-1.617-.95-2.526-.713-.91.238-1.619.948-1.855 1.858s.038 1.875.717 2.525l4.536 4.538-4.532 4.532c-.986 1.018-.973 2.64.029 3.642 1.002 1.003 2.623 1.016 3.642.031l4.526-4.541 4.534 4.536c.652.676 1.617.948 2.526.71.908-.237 1.617-.946 1.855-1.854.237-.909-.035-1.875-.711-2.526l-4.527-4.529 4.532-4.532c.986-1.019.973-2.64-.03-3.642-1.001-1.003-2.622-1.016-3.641-.031z" fill="#fff"/></g></svg>