<svg height="40" viewBox="0 0 40 40" width="40" xmlns="http://www.w3.org/2000/svg"><g fill="none" fill-rule="evenodd"><circle cx="20" cy="20" fill="#0091ff" r="20"/><path d="m22.054 18.331c.542 0 .982.462.982 1.031v7.857c0 .57.44 1.031.983 1.031.542 0 .981.462.981 1.03v.69c0 .273-.103.535-.288.728-.184.193-.434.302-.694.302h-7.036c-.54 0-.978-.457-.982-1.023v-.688c0-.57.44-1.031.982-1.031l.107-.006c.492-.056.875-.494.875-1.025v-5.115c0-.57-.44-1.03-.982-1.03l-.107-.007c-.492-.056-.875-.493-.875-1.025v-.688c0-.57.44-1.03.982-1.03zm-1.801-9.331c1.809 0 3.275 1.54 3.275 3.438 0 1.9-1.466 3.439-3.275 3.439s-3.275-1.54-3.275-3.439 1.466-3.438 3.275-3.438z" fill="#fff" fill-rule="nonzero"/></g></svg>