<svg height="40" viewBox="0 0 40 40" width="40" xmlns="http://www.w3.org/2000/svg"><g fill="none" fill-rule="evenodd"><circle cx="20" cy="20" fill="#f7b500" r="20"/><path d="m22.002 10.115 8.69 14.531c.305.514.388 1.13.229 1.705-.159.576-.545 1.063-1.07 1.349-.353.196-.751.3-1.156.3h-17.386c-1.254.02-2.287-.98-2.309-2.233.001-.395.11-.783.314-1.12l8.692-14.532c.664-1.071 2.054-1.43 3.155-.814.346.193.636.474.84.814zm-1.998 15.857c.948 0 1.718-.769 1.718-1.717 0-.949-.77-1.718-1.718-1.718-.95 0-1.719.77-1.719 1.718s.77 1.717 1.719 1.717zm0-12.344c-.084 0-.168.006-.252.016-1.107.139-1.893 1.148-1.756 2.255l.72 3.953c.08.65.632 1.14 1.288 1.14.655 0 1.208-.49 1.287-1.14l.72-3.953c.01-.083.015-.167.016-.251-.002-1.116-.907-2.02-2.023-2.02z" fill="#fff" fill-rule="nonzero"/></g></svg>