<svg height="40" viewBox="0 0 40 40" width="40" xmlns="http://www.w3.org/2000/svg"><g fill="none" fill-rule="evenodd"><circle cx="20" cy="20" fill="#05b169" r="20"/><path d="m24.5 11c3.126 0 6.014 1.668 7.577 4.375s1.563 6.043 0 8.75-4.451 4.375-7.577 4.375c-.235 0-.467-.016-.699-.035-.058.018-.116.03-.176.035h-7c-.483 0-.875-.391-.875-.875 0-.483.392-.875.875-.875h2.648c-.666-.499-1.258-1.088-1.759-1.753l-.014.003h-5.25c-.483 0-.875-.391-.875-.875 0-.483.392-.875.875-.875h4.236c-.367-.833-.6-1.72-.691-2.625h-6.17c-.483 0-.875-.391-.875-.875 0-.483.392-.875.875-.875h6.17c.09-.906.324-1.791.691-2.625h-4.236c-.483 0-.875-.391-.875-.875 0-.483.392-.875.875-.875h5.25l.014.003c1.648-2.203 4.236-3.5 6.986-3.503zm-10.5 15.75c.483 0 .875.392.875.875s-.392.875-.875.875h-2.625c-.483 0-.875-.392-.875-.875s.392-.875.875-.875zm-5.25 0c.483 0 .875.392.875.875s-.392.875-.875.875h-.875c-.483 0-.875-.392-.875-.875s.392-.875.875-.875zm15.787-12.25h-.127c-.32 0-.577.258-.577.577v.169c.005.258-.158.49-.403.575-1.038.223-1.786 1.13-1.808 2.19 0 1.249.954 1.892 2.354 2.356.97.322 1.387.63 1.387 1.12 0 .515-.51.797-1.256.797-.536-.004-1.066-.103-1.566-.292-.154-.061-.328-.055-.476.02-.148.074-.258.208-.302.368l-.097.373c-.078.281.07.576.341.683.407.146.83.247 1.258.298.288.037.502.282.502.57v.118c0 .32.258.578.578.578h.127c.319 0 .577-.258.577-.578v-.276c-.003-.253.16-.476.403-.55 1.1-.216 1.9-1.169 1.926-2.29 0-1.158-.63-1.866-2.186-2.407-1.111-.411-1.57-.681-1.57-1.106 0-.36.275-.72 1.126-.72.441-.002.879.067 1.296.206.152.054.32.04.462-.034.143-.075.248-.207.29-.362l.086-.33c.077-.303-.1-.614-.401-.702-.282-.086-.571-.145-.864-.179-.287-.036-.502-.28-.502-.57v-.025c0-.153-.062-.3-.17-.408s-.255-.17-.408-.17zm-14.912 0c.483 0 .875.392.875.875s-.392.875-.875.875h-1.75c-.483 0-.875-.392-.875-.875s.392-.875.875-.875z" fill="#fff"/></g></svg>