<svg height="40" viewBox="0 0 40 40" width="40" xmlns="http://www.w3.org/2000/svg"><g fill="none" fill-rule="evenodd"><path d="m0 0h40v40h-40z" fill="none"/><path d="m39.047 2h-38.095c-.527 0-.952.432-.952.968 0 .535.425.968.952.968h3.646v32.66c0 .067.007.135.021.198-.067.267-.025.561.146.803.306.434.902.532 1.33.22l3.043-2.224h.041l3.04 2.225c.333.243.781.242 1.113 0l3.038-2.223h.04l3.04 2.223c.33.243.78.242 1.112 0l3.04-2.225h.04l3.037 2.223c.332.244.781.244 1.115 0l3.038-2.223h.04l3.036 2.223c.168.123.363.183.555.183.296 0 .588-.14.773-.402.172-.242.213-.536.147-.805.012-.065.02-.13.02-.198l-.001-32.658h3.646c.525 0 .952-.432.952-.968s-.427-.968-.952-.968zm-29.577 4.865h17.714c.526 0 .953.432.953.968s-.427.968-.953.968h-17.714c-.527 0-.953-.432-.953-.968 0-.534.426-.968.953-.968zm0 5.975h10.857c.527 0 .952.433.952.968 0 .536-.425.968-.952.968h-10.857c-.527 0-.953-.432-.953-.968 0-.535.426-.968.953-.968zm3.224 16.564h-2.614c-.527 0-.952-.434-.952-.968s.425-.968.952-.968h2.613c.527 0 .952.434.952.968s-.427.968-.952.968zm5.312 0h-2.619c-.527 0-.952-.434-.952-.968s.425-.968.952-.968h2.62c.526 0 .952.434.952.968s-.426.968-.953.968zm5.381 0h-2.613c-.527 0-.952-.434-.952-.968s.425-.968.952-.968h2.613c.525 0 .952.434.952.968s-.425.968-.952.968zm-13.917-8.656c-.527 0-.953-.433-.953-.968 0-.536.426-.968.953-.968h16c.525 0 .952.432.952.968 0 .535-.427.968-.952.968zm18.044 5.513c.017.013.146.1.58.305l.364.171c.729.339 1.19.718 1.404 1.16.128.274.192.574.192.903 0 .609-.213 1.123-.613 1.49-.225.203-.497.351-.81.443v.13c0 .26-.036.436-.12.583-.092.157-.31.407-.778.407-.324 0-.568-.105-.727-.313-.154-.226-.171-.454-.171-.652v-.166c-.11-.034-.224-.074-.346-.123-.237-.092-.966-.376-.966-1.04 0-.186.064-.366.196-.554.22-.313.479-.38.658-.38.16 0 .313.048.502.156.322.187.63.282.914.282.46.002.46-.1.46-.243 0-.082-.022-.108-.052-.137-.005-.005-.092-.082-.435-.249l-.597-.285c-.44-.213-.603-.311-.685-.368-.308-.206-.537-.465-.681-.766-.13-.263-.199-.58-.199-.937 0-.554.172-1.017.513-1.373.198-.203.438-.358.718-.462v-.051c0-.171.015-.423.165-.632.104-.157.327-.352.747-.352.453 0 .668.242.756.387.09.145.13.323.13.586l-.002.012c.126.034.257.076.397.126.256.094 1.027.376 1.027 1.083 0 .197-.067.392-.2.58-.233.331-.525.381-.68.381-.218 0-.406-.103-.575-.213-.283-.185-.547-.276-.81-.276-.384 0-.384.071-.384.213 0 .036 0 .089.108.175z" fill="#000"/></g></svg>