<svg height="18" viewBox="0 0 18 18" width="18" xmlns="http://www.w3.org/2000/svg"><path d="m12.68 5.372-5.758 5.774-1.5-2.628c-.175-.304-.56-.41-.864-.235-.304.174-.41.559-.236.863l1.913 3.349c.116.203.33.32.55.32.107 0 .215-.027.313-.083.056-.034.107-.072.15-.118l.006-.007 6.32-6.339c.246-.247.246-.648-.002-.894-.246-.25-.645-.25-.893-.002zm-3.68-5.372c-4.971 0-9 4.029-9 9s4.029 9 9 9 9-4.029 9-9-4.029-9-9-9zm5.469 14.469c-.71.71-1.539 1.269-2.46 1.657-.952.404-1.965.608-3.009.608s-2.057-.204-3.01-.606c-.92-.39-1.747-.948-2.459-1.658-.71-.71-1.269-1.538-1.657-2.459-.404-.954-.608-1.967-.608-3.011s.204-2.057.606-3.01c.39-.92.948-1.747 1.658-2.459.71-.71 1.538-1.269 2.459-1.657.954-.404 1.967-.608 3.011-.608s2.057.204 3.01.606c.92.39 1.747.948 2.459 1.658.71.71 1.269 1.538 1.657 2.459.404.954.608 1.967.608 3.011s-.204 2.057-.606 3.01c-.39.92-.948 1.748-1.66 2.459z" fill="#0091ff"/></svg>