<svg height="100" viewBox="0 0 74 100" width="74" xmlns="http://www.w3.org/2000/svg"><g fill="none"><path d="m15.136 46v-24.643c0-11.795 9.85-21.357 22-21.357s22 9.562 22 21.357v3.278c0 1.814-1.515 3.285-3.384 3.285-1.87 0-3.385-1.47-3.385-3.285v-3.278c0-8.166-6.819-14.786-15.23-14.786-8.412 0-15.231 6.62-15.231 14.786v24.643" fill="#a2b5d6"/><path d="m0 45.667h74v54h-74z" fill="#839cc9"/><path d="m40.636 77.6c0 1.878-1.567 3.4-3.5 3.4s-3.5-1.522-3.5-3.4v-10.2c0-1.878 1.567-3.4 3.5-3.4s3.5 1.522 3.5 3.4z" fill="#4768a3"/><path d="m0 45.667h37v54h-37z" fill="#000064" opacity=".15"/></g></svg>