<svg height="40" viewBox="0 0 40 40" width="40" xmlns="http://www.w3.org/2000/svg"><path d="m20 0c11.046 0 20 8.954 20 20s-8.954 20-20 20-20-8.954-20-20 8.954-20 20-20zm-5.333 29.333h-9.275c3.08 4.812 8.472 8 14.608 8 1.861 0 3.654-.293 5.334-.836v-7.164h-8v2.667h-2.667zm13.333-24.713v8.713h-10.667v4l4 4h-4v5.334h10.667v8.714c5.547-2.891 9.333-8.694 9.333-15.381s-3.786-12.49-9.332-15.38zm-8-1.953c-9.573 0-17.333 7.76-17.333 17.333 0 2.363.472 4.615 1.328 6.668l10.672-.001v-5.334h-4l4-4v-9.333h2.666v2.667h8l.001-7.164c-1.68-.543-3.473-.836-5.334-.836z" fill-rule="evenodd"/></svg>