<svg xmlns="http://www.w3.org/2000/svg" width="47" height="47" viewBox="0 0 47 47">
    <g fill="none" fill-rule="evenodd">
        <g>
            <g>
                <g transform="translate(-184 -993) translate(144 953) translate(40 40)">
                    <circle cx="23.5" cy="23.5" r="23.5" fill="#F0B90B"/>
                    <path fill="#030304" d="M16.27 36.154v3.615h3.615v-3.615H30.73l.001 9.712C28.454 46.602 26.023 47 23.5 47c-8.146 0-15.324-4.145-19.54-10.44l-.265-.406h12.574zM34.346 2.648C41.867 6.567 47 14.434 47 23.5c0 8.898-4.946 16.641-12.238 20.63l-.415.222V32.538H19.884v-7.23h5.423l-5.423-5.423v-5.423h14.461V2.648zM23.5 0c2.294 0 4.511.329 6.607.941l.625.193-.001 9.712H19.885V7.231h-3.616v12.654l-5.423 5.423h5.423v7.23l-14.467.002C.64 29.757 0 26.703 0 23.5 0 10.521 10.521 0 23.5 0z"/>
                </g>
            </g>
        </g>
    </g>
</svg>
