<svg height="24" viewBox="0 0 24 24" width="24" xmlns="http://www.w3.org/2000/svg"><path d="m377.999 78c6.626 0 12 5.371 12.001 11.998-.007 6.626-5.377 11.995-12.002 12.002-6.627-.001-12-5.374-11.998-12 0-6.628 5.372-11.999 11.999-12zm-1.368 5h-1.52v2.272h-3.097v1.48s1.13-.02 1.112 0c.422-.042.807.226.869.607v6.222c-.01.13-.076.252-.184.339-.11.084-.251.127-.395.12.016.012-.792.004-1.04.001h-.072l-.304 1.649h3.086v2.31h1.53v-2.275h1.22v2.264h1.532v-2.281c2.583-.143 4.384-.718 4.609-2.905.183-1.759-.733-2.544-2.194-2.861.889-.408 1.447-1.129 1.314-2.327-.174-1.639-1.736-2.188-3.715-2.357v-2.258h-1.528v2.215c-.403 0-.813 0-1.223.012zm4.323 9.531c0 1.716-3.254 1.52-4.291 1.52v-3.045c1.037.001 4.291-.268 4.291 1.525zm-.709-4.296c0 1.57-2.715 1.38-3.579 1.38v-2.767c.864 0 3.58-.246 3.58 1.387z" fill="#fff" transform="translate(-366 -78)"/></svg>