<svg height="20" viewBox="0 0 20 20" width="20" xmlns="http://www.w3.org/2000/svg"><g fill="none"><path d="m9.998 20c-5.522-.001-9.999-4.478-9.998-10 0-5.523 4.477-9.999 9.999-10 5.522 0 10 4.476 10.001 9.998-.006 5.522-4.481 9.996-10.002 10.002z" fill="#f0b90b"/><path d="m11.871 8.53c0 1.308-2.263 1.15-2.983 1.15v-2.306c.72 0 2.983-.205 2.983 1.156m.59 3.58c0 1.43-2.71 1.266-3.575 1.266v-2.538c.864.001 3.576-.223 3.576 1.272m1.786-4.098c-.145-1.365-1.448-1.823-3.096-1.964v-1.881h-1.274v1.846c-.336 0-.677 0-1.019.01v-1.857h-1.266v1.894h-2.581v1.233s.941-.016.926 0c.352-.035.673.189.724.506v5.185c-.008.109-.063.21-.153.283-.09.07-.21.106-.33.1.017.012-.926 0-.926 0l-.253 1.375h2.572v1.925h1.274v-1.897h1.018v1.886h1.276v-1.9c2.152-.12 3.653-.599 3.84-2.421.153-1.466-.61-2.12-1.828-2.385.741-.34 1.206-.94 1.096-1.939" fill="#fff"/></g></svg>