<svg height="220" viewBox="0 0 341 220" width="341" xmlns="http://www.w3.org/2000/svg" xmlns:xlink="http://www.w3.org/1999/xlink"><defs><circle id="a" cx="250.52" cy="89.08" r="32.75"/><mask id="b" fill="#fff" height="65.5" width="65.5" x="0" y="0"><use xlink:href="#a"/></mask></defs><g fill="none" fill-rule="evenodd"><path d="m1 0h340v220h-340z" fill="none"/><g transform="translate(1 21)"><g fill-rule="nonzero" transform="translate(.000001 58)"><path d="m31.4937 63c-17.3942997-.0031511-31.49684947-14.1057008-31.4937-31.5 0-17.3974502 14.1025503-31.49685 31.49685-31.5 17.3942997 0 31.4999995 14.0993998 31.50315 31.4936995-.0189005 17.3942997-14.1151503 31.4873994-31.5063 31.5063005z" stroke="#000"/><path d="m37.3943016 26.8681474c0 4.121818-7.1289597 3.622545-9.395944 3.622545v-7.2638597c2.2669843 0 9.395944-.6456764 9.395944 3.6413147m1.8600897 11.2768137c0 4.5047192-8.5406349 3.9904304-11.2643377 3.9904304v-7.9958766c2.7237028.003754 11.2643377-.7019854 11.2643377 4.0054462m5.6259408-12.9060205c-.4567184-4.3020068-4.5588805-5.743517-9.7530148-6.186481v-5.9274597h-4.0108183v5.8148417c-1.0587564 0-2.1341207 0-3.2094851.0300314v-5.8448731h-3.9900584v5.964999h-2.5534713-5.576117v3.8815664s2.9645179-.0488012 2.9188461 0c1.1085802-.1088641 2.1175128.5968753 2.2794402 1.5954213v16.333361c-.0249119.3416079-.1992953.6606922-.4816304.8896821-.286487.221482-.6601657.3341-1.0379964.3153303.0498238.0375394-2.9188461 0-2.9188461 0l-.7971813 4.3320383h5.2273502 2.8731742v6.0626013h4.0149704v-5.9725069h3.2053331v5.9424754h4.0191223v-5.9875226c6.7801929-.3753933 11.5093048-1.8844742 12.0988868-7.6242372.4816303-4.6173372-1.9223695-6.6782462-5.7588044-7.5116193 2.333416-1.0698708 3.799067-2.9618528 3.4503002-6.1076484" fill="#000"/></g><path d="m23.5211523 138.45c.9466797 0 1.6972006-.224943 2.2515625-.674829.554362-.449886.831543-1.101261.831543-1.954126 0-.383789-.0735596-.736662-.2206787-1.058618-.1471191-.321957-.3550049-.594873-.6236572-.81875-.2686524-.223877-.5906087-.374195-.9658692-.450952.4306966-.15778.7771729-.399781 1.0394287-.726001.2622559-.326221.3933838-.696151.3933838-1.10979 0-.840072-.2739827-1.470126-.8219482-1.890162-.5479655-.420035-1.3080811-.630053-2.2803467-.630053h-4.0169922v.812353l1.042627.179102v7.336767l-1.042627.179102v.805957zm-.0703613-5.353857h-2.0404785v-2.967969h1.7142578c.5970052 0 1.0532878.124731 1.3688477.374194s.4733398.62579.4733398 1.12898c0 .452018-.1396566.809155-.4189697 1.071411-.2793132.262256-.6449789.393384-1.0969971.393384zm.0703613 4.368798h-2.1108398v-3.38374h2.3027344c.3667317 0 .6705648.070362.911499.211084.2409342.140723.4200358.341146.5373047.60127.1172689.260123.1759033.573551.1759033.940283 0 .520247-.158846.92216-.4765381 1.205737-.317692.283578-.7643799.425366-1.3400635.425366zm9.6842774.985059v-.805957l-1.042627-.179102v-7.375146h2.1108399l.1918945 1.29209h.9338867v-2.245166h-7.7397461v2.245166h.9466797l.1854981-1.29209h2.1108398v7.375146l-1.0426269.179102v.805957zm7.5606445.134326c.5159831 0 1.017041-.060766 1.5031738-.1823.4861329-.121533.9040365-.29104 1.253711-.50852v-2.021289h-.9850586l-.1407227 1.298486c-.1876302.115137-.4243001.208952-.7100097.281445-.2857097.072494-.5778158.108741-.8763184.108741-.6396484 0-1.1822835-.144987-1.6279053-.434961-.4456217-.289974-.7846354-.711076-1.017041-1.263306s-.3486084-1.21853-.3486084-1.998901v-.147119c0-.720671.1087403-1.356055.3262207-1.906153.2174805-.550097.5373047-.98186.9594727-1.295288s.938151-.470141 1.5479492-.470141c.2515951 0 .4850667.019189.700415.057568s.4115072.093815.5884766.166308c.1769694.072494.3336833.162045.4701416.268653l.1343262 1.471191h1.004248v-2.008496c-.3283528-.289974-.7419922-.528776-1.2409179-.716406-.4989258-.18763-1.0490235-.281445-1.650293-.281445-.8528646 0-1.5863281.204687-2.2003906.614062s-1.0852702.969067-1.4136231 1.679077-.4925293 1.521297-.4925293 2.433863v.134326c0 .904036.1567139 1.712125.4701416 2.424267.3134278.712142.7825033 1.272901 1.4072266 1.682276s1.4040283.614062 2.337915.614062z" fill="#000" fill-rule="nonzero"/><path d="m250.52 178.16c49.197526 0 89.08-39.882474 89.08-89.08 0-49.1975255-39.882474-89.08-89.08-89.08s-89.08 39.8824745-89.08 89.08c0 49.197526 39.882474 89.08 89.08 89.08z" fill="#cce7fb"/><circle cx="250.52" cy="89.08" r="28.165" stroke="#373737" stroke-width="1.31"/><path d="m256.394302 84.8681474c0 4.121818-7.12896 3.622545-9.395944 3.622545v-7.2638597c2.266984 0 9.395944-.6456764 9.395944 3.6413147m1.860089 11.2768137c0 4.5047189-8.540635 3.9904299-11.264337 3.9904299v-7.9958761c2.723702.003754 11.264337-.7019854 11.264337 4.0054462m5.625941-12.9060205c-.456718-4.3020068-4.55888-5.743517-9.753015-6.186481v-5.9274597h-4.010818v5.8148417c-1.058756 0-2.134121 0-3.209485.0300314v-5.8448731h-3.990058v5.964999h-2.553472-5.576117v3.8815664s2.964518-.0488012 2.918846 0c1.10858-.1088641 2.117513.5968753 2.279441 1.5954213v16.333361c-.024912.3416079-.199296.6606922-.481631.8896821-.286487.2214823-.660166.3341003-1.037996.3153303.049824.037539-2.918846 0-2.918846 0l-.797182 4.332038h5.227351 2.873174v6.062602h4.01497v-5.972507h3.205333v5.942475h4.019122v-5.987522c6.780193-.375394 11.509305-1.884475 12.098887-7.6242377.481631-4.6173372-1.922369-6.6782462-5.758804-7.5116193 2.333416-1.0698708 3.799067-2.9618528 3.4503-6.1076484" fill="#05b169" fill-rule="nonzero"/><use mask="url(#b)" stroke="#05b169" stroke-dasharray="2.62" stroke-width="2.62" xlink:href="#a"/><g fill-rule="nonzero"><path d="m235.408306 138.45 2.027685-6.447656.249463-.940283h.038379l.255859.940283 2.021289 6.447656h1.196143l2.085254-8.40498.735596-.095948v-.812353h-2.967969v.812353l1.042627.147119-1.202539 5.129981-.332617 1.266504h-.038379l-.3646-1.266504-1.893359-6.089453h-1.106592l-1.87417 6.089453-.370996 1.196142-.038379-.006396-.281445-1.196143-1.215332-5.123584.965869-.147119v-.812353h-3.019141v.812353l.786768.095948 2.174804 8.40498zm14.001904 0c.94668 0 1.6972-.224943 2.251562-.674829s.831543-1.101261.831543-1.954126c0-.383789-.073559-.736662-.220678-1.058618-.147119-.321957-.355005-.594873-.623658-.81875-.268652-.223877-.590608-.374195-.965869-.450952.430697-.15778.777173-.399781 1.039429-.726001.262256-.326221.393384-.696151.393384-1.10979 0-.840072-.273983-1.470126-.821948-1.890162-.547966-.420035-1.308081-.630053-2.280347-.630053h-4.016992v.812353l1.042627.179102v7.336767l-1.042627.179102v.805957zm-.070361-5.353857h-2.040479v-2.967969h1.714258c.597005 0 1.053288.124731 1.368848.374194.315559.249463.473339.62579.473339 1.12898 0 .452018-.139656.809155-.418969 1.071411s-.644979.393384-1.096997.393384zm.070361 4.368798h-2.11084v-3.38374h2.302734c.366732 0 .670565.070362.9115.211084.240934.140723.420035.341146.537304.60127.117269.260123.175904.573551.175904.940283 0 .520247-.158847.92216-.476539 1.205737-.317692.283578-.764379.425366-1.340063.425366zm9.684277.985059v-.805957l-1.042627-.179102v-7.375146h2.11084l.191895 1.29209h.933886v-2.245166h-7.739746v2.245166h.94668l.185498-1.29209h2.11084v7.375146l-1.042627.179102v.805957zm7.560645.134326c.515983 0 1.017041-.060766 1.503174-.1823.486132-.121533.904036-.29104 1.253711-.50852v-2.021289h-.985059l-.140723 1.298486c-.18763.115137-.4243.208952-.710009.281445-.28571.072494-.577816.108741-.876319.108741-.639648 0-1.182283-.144987-1.627905-.434961s-.784635-.711076-1.017041-1.263306-.348608-1.21853-.348608-1.998901v-.147119c0-.720671.10874-1.356055.32622-1.906153.217481-.550097.537305-.98186.959473-1.295288s.938151-.470141 1.547949-.470141c.251595 0 .485067.019189.700415.057568s.411507.093815.588477.166308c.176969.072494.333683.162045.470141.268653l.134326 1.471191h1.004249v-2.008496c-.328353-.289974-.741993-.528776-1.240918-.716406-.498926-.18763-1.049024-.281445-1.650293-.281445-.852865 0-1.586329.204687-2.200391.614062-.614063.409375-1.08527.969067-1.413623 1.679077s-.492529 1.521297-.492529 2.433863v.134326c0 .904036.156714 1.712125.470141 2.424267.313428.712142.782503 1.272901 1.407227 1.682276.624723.409375 1.404028.614062 2.337915.614062z" fill="#000"/><path d="m208.757354 21.86v-2.232373h-1.004249l-.140722 1.2856933h-3.645996v-3.3709473h3.434912v-.991455h-3.434912v-3.0319336h3.441308l.140723 1.2665039h1.010644v-2.2387695h-6.89541v.8123535l1.042627.1791015v7.3367676l-1.042627.1791016v.805957zm4.605468 0v-.805957l-1.042627-.1791016v-3.1726562l1.974805-.0362852 1.869482 4.194h1.554346v-.8251465l-.646045-.1151367-1.572783-3.4027168.060733-.015943c.068751-.0198857.135849-.0415772.201293-.0650745l.191372-.0759093c.434961-.1897623.770777-.4701416 1.007447-.8411377.23667-.370996.355005-.8294108.355005-1.3752441 0-.554362-.121534-1.0234375-.3646-1.4072266-.243066-.383789-.598071-.6769612-1.065015-.8795166-.466943-.2025553-1.039428-.303833-1.717456-.303833h-4.151318v.8059571l1.042627.1791015v7.3367676l-1.042627.1791016v.805957zm.678028-5.1491699h-1.720655v-3.1726563h1.848584c.643913 0 1.119385.1428548 1.426416.4285645.307032.2857096.460547.673763.460547 1.1641601 0 .5159831-.159912.9083008-.479736 1.1769532-.319824.2686523-.831543.4029785-1.535156.4029785zm9.044629 5.2834961c.515983 0 1.017041-.0607666 1.503173-.1822998.486133-.1215332.904037-.2910401 1.253711-.5085205v-2.0212891h-.985058l-.140723 1.2984863c-.18763.1151367-.4243.2089518-.71001.2814453-.285709.0724935-.577815.1087403-.876318.1087403-.639649 0-1.182284-.144987-1.627905-.434961-.445622-.2899739-.784636-.7110758-1.017041-1.2633056-.232406-.5522298-.348609-1.2185303-.348609-1.9989014v-.1471191c0-.7206706.10874-1.3560547.326221-1.9061524.21748-.5500976.537305-.9818603.959473-1.2952881.422168-.3134277.938151-.4701416 1.547949-.4701416.251595 0 .485067.0191895.700415.0575684s.411507.0938151.588476.1663086c.17697.0724935.333684.1620443.470142.2686523l.134326 1.4711914h1.004248v-2.0084961c-.328353-.2899739-.741992-.528776-1.240918-.7164062s-1.049023-.2814453-1.650293-.2814453c-.852864 0-1.586328.2046875-2.20039.6140625-.614063.409375-1.085271.9690674-1.413623 1.6790771-.328353.7100098-.49253 1.5212972-.49253 2.4338623v.1343262c0 .9040365.156714 1.7121257.470142 2.4242676s.782503 1.2729004 1.407226 1.6822754c.624724.409375 1.404029.6140625 2.337916.6140625zm10.176806-.1343262v-2.0532715h-1.068213l-.102343 1.0682129h-3.306983l-.012793-.0319824 2.449854-2.667334c.362467-.3923177.672697-.765446.930688-1.1193848.257992-.3539388.454151-.6993489.588477-1.0362304s.201489-.6758952.201489-1.017041c0-.5031902-.115137-.9488119-.34541-1.3368653-.230274-.3880534-.55756-.6940185-.981861-.9178955-.4243-.2238769-.930688-.3358154-1.519165-.3358154-.626855 0-1.167358.1247314-1.621508.3741943-.454151.2494629-.800627.5884766-1.039429 1.017041-.238802.4285645-.351807.9114991-.339014 1.4488037l.012793.0383789h1.208936c0-.6012695.152449-1.0660807.457348-1.3944335.304899-.3283529.730266-.4925293 1.276099-.4925293.524512 0 .92749.158846 1.208936.476538.281445.3176921.422168.7089437.422168 1.1737549 0 .2515951-.040512.4946615-.121534.7291992-.081022.2345378-.223877.4957276-.428564.7835694-.204688.2878418-.488265.634318-.850733 1.0394287l-3.051123 3.3901367v.8635254zm4.324024.1343262c.916829 0 1.639632-.316626 2.168408-.949878.528776-.6332519.793164-1.5447509.793164-2.734497v-2.2067871c0-1.1854818-.26652-2.0969808-.799561-2.7344971-.53304-.6375163-1.257975-.9562744-2.174804-.9562744-.912565 0-1.633236.3187581-2.162012.9562744s-.793164 1.5490153-.793164 2.7344971v2.2067871c0 1.1854817.26652 2.0959147.79956 2.7312988.533041.6353841 1.255843.9530762 2.168409.9530762zm0-.9850586c-.550098 0-.972266-.2057536-1.266504-.6172608-.294239-.4115071-.441358-1.0202392-.441358-1.8261963v-2.7312988c0-.805957.144987-1.4125569.434961-1.8197998.289974-.4072428.71001-.6108642 1.260108-.6108642.558626 0 .983992.2036214 1.276098.6108642.292106.4072429.438159 1.0138428.438159 1.8197998v2.7312988c0 .8102214-.14392 1.4200196-.431762 1.8293946s-.711076.6140625-1.269702.6140625zm10.259961.9850586c.929622 0 1.610848-.197225 2.043676-.5916748.432829-.3944499.649243-.883781.649243-1.4679932 0-.5117187-.190828-.9424154-.572485-1.2920898-.381657-.3496745-1.054354-.6375163-2.018091-.8635254-.388053-.0938151-.682291-.1886963-.882715-.2846436-.200423-.0959473-.335815-.2036214-.406176-.3230224-.070362-.1194011-.105542-.2601237-.105542-.422168 0-.277181.122599-.5074544.367798-.6908203.245198-.1833659.563956-.2750489.956274-.2750489.264388 0 .498926.0298503.703613.0895508.204688.0597005.381657.144987.530908.2558594l.204688.9210938h.94668l-.063965-1.5799317c-.277181-.2004232-.602336-.3603353-.975464-.4797363-.373128-.1194011-.821948-.1791016-1.34646-.1791016-.515983 0-.968001.0874186-1.356055.2622559-.388053.1748372-.69082.4104411-.908301.7068115-.21748.2963704-.32622.6321859-.32622 1.0074463 0 .5373047.197225.9669352.591675 1.2888916.394449.3219564 1.009578.5788818 1.845385.7707764.588477.132194.994654.2931722 1.218531.4829345.223877.1897624.335815.4211019.335815.6940186 0 .2899739-.110872.5330403-.332617.7291992s-.588477.2942383-1.100195.2942383c-.260124 0-.502124-.0223877-.726001-.0671631s-.455217-.1162028-.694019-.2142822l-.23667-.9914551h-.953076l.012793 1.6438965c.456282.1961588.886979.3411458 1.29209.4349609.40511.0938151.840071.1407227 1.304883.1407227zm6.179003-.025586c.230274 0 .478671-.0213216.745191-.0639648s.491463-.091683.674829-.1471191l-.172705-.8251465c-.102344.0213216-.245199.0458414-.428565.0735595-.183365.0277181-.349674.0415772-.498925.0415772-.221745 0-.398715-.07889-.530909-.2366699-.132194-.15778-.198291-.4029786-.198291-.7355957v-4.2024903h1.503174v-.9338867h-1.503174v-1.6694824h-1.260107v1.6694824h-1.093799v.9338867h1.093799v4.2024903c0 .66097.150317 1.1417724.450952 1.4424072s.706812.4509521 1.21853.4509521zm4.464747.025586c.413639 0 .802758-.1034099 1.167358-.3102295.3646-.2068197.668433-.4658773.911499-.7771729.008529.1492513.023454.2985026.044775.4477539.021322.1492513.051172.3176921.089551.5053223h1.810205v-.805957l-.671631-.0703614c-.008528-.0852864-.013859-.1705729-.015991-.2558593-.002132-.0852865-.003198-.1727051-.003198-.2622559v-3.3325684c0-.7462565-.238802-1.3198079-.716406-1.7206542-.477605-.4008464-1.136442-.6012696-1.976514-.6012696-.50319 0-.961605.0650309-1.375244.1950928-.413639.1300618-.776107.3208903-1.087403.5724853v1.5863282h.972266l.134326-.9658692c.174838-.1236653.368864-.2206787.58208-.29104.213217-.0703613.464812-.105542.754786-.105542.460546 0 .817683.1151367 1.071411.3454102.253727.2302734.38059.5543619.38059.9722656v.6780273h-1.234521c-.635384 0-1.181217.0906169-1.6375.2718506s-.804891.4349609-1.045825.7611816c-.240934.3262208-.361402.7089437-.361402 1.148169 0 .6396484.187631 1.135376.562891 1.4871826.37526.3518067.923226.52771 1.643897.52771zm.185498-1.0554199c-.379525 0-.663103-.0799561-.850733-.2398682s-.281445-.3912516-.281445-.6940186c0-.3411458.144987-.6503092.434961-.9274902s.724935-.4157715 1.304883-.4157715h1.279296v1.253711c-.149251.2814453-.396582.5223795-.741992.7228027s-.727067.3006348-1.14497.3006348zm8.161914.9210937v-.805957l-1.042627-.1791016v-4.0617676c.166308-.3027669.389119-.541569.668432-.7164062.279313-.1748373.600204-.2622559.962671-.2622559.494662 0 .86246.1279297 1.103394.3837891s.361401.6886881.361401 1.2984863v3.3581543l-1.042627.1791016v.805957h3.345361v-.805957l-1.042626-.1791016v-3.3837402c0-.9125651-.204688-1.5873942-.614063-2.0244873s-.987191-.6556397-1.733447-.6556397c-.44349 0-.839006.1012777-1.186548.303833-.347542.2025554-.63645.4871989-.866724.8539307l-.08955-1.029834h-2.168409v.8123535l1.042627.1791016v4.9444824l-1.042627.1791016v.805957zm7.963623.1343262c.430696 0 .809155-.0810222 1.135376-.2430664.32622-.1620443.602335-.4008464.828344-.7164063l.102344.8251465h2.136426v-.805957l-1.042627-.1791016v-8.993457h-2.302734v.8123535l1.042627.1791016v2.8208496c-.221745-.2857097-.489332-.5042562-.802759-.6556397-.313428-.1513834-.674829-.2270752-1.084204-.2270752-.567155 0-1.053288.1545817-1.458399.4637451-.40511.3091634-.714274.7430583-.92749 1.3016846s-.319824 1.2089356-.319824 1.9509277v.1343262c0 .6652344.106608 1.2473145.319824 1.7462402.213216.4989258.521313.8880453.924292 1.1673584.402978.2793132.885913.4189698 1.448804.4189698zm.319824-1.0234375c-.597005 0-1.038363-.211084-1.324072-.633252-.28571-.4221679-.428565-.9807943-.428565-1.6758789v-.1343262c0-.5330403.063965-1.0010498.191895-1.4040283.127929-.4029785.321956-.7185384.58208-.9466797.260123-.2281412.590609-.3422119.991455-.3422119.362467 0 .673763.0852865.933887.2558594.260123.1705729.471207.4008463.633252.6908203v3.2110352c-.166309.3112955-.377393.5522298-.633252.7228027-.25586.1705729-.57142.2558594-.94668.2558594zm6.991357 1.0234375c.41364 0 .802759-.1034099 1.167359-.3102295.364599-.2068197.668432-.4658773.911499-.7771729.008528.1492513.023454.2985026.044775.4477539.021322.1492513.051172.3176921.089551.5053223h1.810205v-.805957l-.671631-.0703614c-.008529-.0852864-.013859-.1705729-.015991-.2558593-.002132-.0852865-.003198-.1727051-.003198-.2622559v-3.3325684c0-.7462565-.238802-1.3198079-.716407-1.7206542-.477604-.4008464-1.136442-.6012696-1.976513-.6012696-.50319 0-.961605.0650309-1.375244.1950928-.41364.1300618-.776107.3208903-1.087403.5724853v1.5863282h.972266l.134326-.9658692c.174837-.1236653.368864-.2206787.58208-.29104s.464811-.105542.754785-.105542c.460547 0 .817684.1151367 1.071411.3454102.253728.2302734.380591.5543619.380591.9722656v.6780273h-1.234521c-.635384 0-1.181218.0906169-1.6375.2718506-.456283.1812337-.804891.4349609-1.045825.7611816-.240935.3262208-.361402.7089437-.361402 1.148169 0 .6396484.18763 1.135376.562891 1.4871826.37526.3518067.923226.52771 1.643896.52771zm.185498-1.0554199c-.379524 0-.663102-.0799561-.850732-.2398682s-.281445-.3912516-.281445-.6940186c0-.3411458.144987-.6503092.434961-.9274902s.724934-.4157715 1.304882-.4157715h1.279297v1.253711c-.149251.2814453-.396582.5223795-.741992.7228027s-.727067.3006348-1.144971.3006348zm8.149121.9210937v-.805957l-1.042626-.1791016v-3.9210449c.123665-.289974.298502-.5213135.524511-.6940186.226009-.172705.505322-.2483968.83794-.2270752l.876318.0511719.166309-1.1705566c-.059701-.0213216-.158846-.0437093-.297437-.0671631-.13859-.0234538-.273983-.0351807-.406177-.0351807-.370996 0-.700415.1002116-.988256.3006348-.287842.2004232-.529843.4776042-.726001.831543l-.012793-.1215332-.108741-.8827149h-2.168408v.8123535l1.042627.1791016v4.9444824l-1.042627.1791016v.805957zm4.848536.1343262c.430696 0 .809155-.0810222 1.135376-.2430664.32622-.1620443.602335-.4008464.828344-.7164063l.102344.8251465h2.136426v-.805957l-1.042627-.1791016v-8.993457h-2.302734v.8123535l1.042626.1791016v2.8208496c-.221744-.2857097-.489331-.5042562-.802758-.6556397-.313428-.1513834-.674829-.2270752-1.084204-.2270752-.567155 0-1.053288.1545817-1.458399.4637451s-.714274.7430583-.92749 1.3016846-.319824 1.2089356-.319824 1.9509277v.1343262c0 .6652344.106608 1.2473145.319824 1.7462402.213216.4989258.521313.8880453.924292 1.1673584.402978.2793132.885913.4189698 1.448804.4189698zm.319824-1.0234375c-.597005 0-1.038363-.211084-1.324072-.633252-.28571-.4221679-.428565-.9807943-.428565-1.6758789v-.1343262c0-.5330403.063965-1.0010498.191895-1.4040283.127929-.4029785.321956-.7185384.58208-.9466797.260123-.2281412.590608-.3422119.991455-.3422119.362467 0 .673763.0852865.933887.2558594.260123.1705729.471207.4008463.633251.6908203v3.2110352c-.166308.3112955-.377392.5522298-.633251.7228027-.25586.1705729-.57142.2558594-.94668.2558594z" fill="#0091ff"/><path d="m202.1397 84.46 11 5.275-11 5.275zm-53.144704 4.62v1.31h-3.929999v-1.31zm5.24 0v1.31h-3.93v-1.31zm5.24 0v1.31h-3.93v-1.31zm5.24 0v1.31h-3.93v-1.31zm5.24 0v1.31h-3.93v-1.31zm5.239999 0v1.31h-3.93v-1.31zm5.24 0v1.31h-3.93v-1.31zm5.24 0v1.31h-3.93v-1.31zm5.24 0v1.31h-3.93v-1.31zm5.239999 0v1.31h-3.929999v-1.31zm5.24 0v1.31h-3.93v-1.31zm-130.9999941 0v1.31h-3.9299999v-1.31zm5.2399998 0v1.31h-3.9299999v-1.31zm5.2399997 0v1.31h-3.9299999v-1.31zm5.2399998 0v1.31h-3.9299999v-1.31zm5.2399998 0v1.31h-3.9299999v-1.31zm5.2399997 0v1.31h-3.9299998v-1.31zm5.2400003 0v1.31h-3.9300004v-1.31zm5.239999 0v1.31h-3.93v-1.31zm5.24 0v1.31h-3.93v-1.31zm5.24 0v1.31h-3.93v-1.31zm5.24 0v1.31h-3.93v-1.31zm5.239999 0v1.31h-3.93v-1.31zm5.24 0v1.31h-3.93v-1.31zm5.24 0v1.31h-3.93v-1.31zm5.24 0v1.31h-3.93v-1.31z" fill="#05b169"/><path d="m116.714502 82.53 1.503174-4.1577148.32622-1.1065918.038379-.0063965.332618 1.1129883 1.40083 4.1577148h1.196142l1.791016-5.9999023.767578-.1087403v-.8123535h-2.795264v.8123535l.869922.1343262-.965869 3.4413086-.300635.9722656h-.038379l-.307031-.9722656-1.432812-4.3879883h-1.061817l-1.503174 4.4007813-.281445.81875h-.038379l-.21748-.81875-.953076-3.4477051.850732-.1407227v-.8123535h-2.859229v.8123535l.773975.0895508 1.822998 6.0190918zm11.456103 0v-.805957l-1.042626-.1791016v-3.9210449c.123665-.289974.298502-.5213135.524511-.6940186.226009-.172705.505322-.2483968.83794-.2270752l.876318.0511719.166309-1.1705566c-.059701-.0213216-.158846-.0437093-.297437-.0671631-.13859-.0234538-.273983-.0351807-.406177-.0351807-.370996 0-.700415.1002116-.988256.3006348-.287842.2004232-.529843.4776042-.726001.831543l-.012793-.1215333-.108741-.8827148h-2.168408v.8123535l1.042627.1791016v4.9444824l-1.042627.1791016v.805957zm4.368799.1343262c.41364 0 .802759-.1034099 1.167359-.3102295.364599-.2068197.668432-.4658773.911499-.7771729.008528.1492513.023453.2985026.044775.4477539s.051172.3176921.089551.5053223h1.810205v-.805957l-.671631-.0703614c-.008529-.0852864-.013859-.1705729-.015991-.2558593-.002132-.0852865-.003198-.1727051-.003198-.2622559v-3.3325684c0-.7462565-.238802-1.3198079-.716407-1.7206543-.477604-.4008463-1.136442-.6012695-1.976513-.6012695-.50319 0-.961605.0650309-1.375244.1950928-.41364.1300618-.776107.3208903-1.087403.5724853v1.5863282h.972266l.134326-.9658692c.174837-.1236653.368864-.2206787.58208-.29104s.464811-.105542.754785-.105542c.460547 0 .817684.1151367 1.071411.3454102.253728.2302734.380591.5543619.380591.9722656v.6780273h-1.234521c-.635384 0-1.181218.0906169-1.6375.2718506-.456283.1812337-.804891.4349609-1.045825.7611816-.240935.3262208-.361402.7089437-.361402 1.148169 0 .6396484.18763 1.135376.562891 1.4871826.37526.3518067.923226.52771 1.643896.52771zm.185498-1.05542c-.379524 0-.663102-.079956-.850732-.2398681s-.281445-.3912516-.281445-.6940186c0-.3411458.144987-.6503092.434961-.9274902s.724934-.4157715 1.304882-.4157715h1.279297v1.2537109c-.149251.2814454-.396582.5223796-.741992.7228028s-.727067.3006347-1.144971.3006347zm7.963623 3.5820313v-.8123535l-1.100195-.1791016v-2.3858887c.226009.2814454.499992.4935954.821948.6364502.321957.1428549.696151.2142823 1.122583.2142823.562891 0 1.044759-.1396566 1.445606-.4189698.400846-.2793131.708943-.6684326.924292-1.1673584.215348-.4989257.323022-1.0810058.323022-1.7462402v-.1343262c0-.7462565-.106608-1.3976318-.319824-1.9541259-.213216-.5564942-.52238-.989323-.92749-1.2984864-.405111-.3091634-.893376-.4637451-1.464795-.4637451-.434961 0-.817684.0831543-1.148169.2494629s-.610864.4072428-.841138.7228027l-.115136-.8443359h-2.123633v.8123535l1.042627.1791016v7.5990234l-.978662.1791016v.8123535zm.454151-3.5116699c-.370996 0-.683358-.0778239-.937085-.2334717s-.459481-.3763265-.617261-.6620361v-3.3709473c.15778-.2814453.3646-.5031901.620459-.6652344.255859-.1620442.562891-.2430664.921094-.2430664.40511 0 .743058.1151367 1.013843.3454102.270784.2302734.474406.5468994.610864.9498779s.204687.8688558.204687 1.3976318v.1343262c0 .6950846-.153515 1.2601074-.460547 1.6950684-.307031.4349609-.759049.6524414-1.356054.6524414zm7.202441 3.5116699v-.8123535l-1.100195-.1791016v-2.3858887c.226009.2814454.499992.4935954.821948.6364502.321956.1428549.696151.2142823 1.122583.2142823.562891 0 1.044759-.1396566 1.445606-.4189698.400846-.2793131.708943-.6684326.924292-1.1673584.215348-.4989257.323022-1.0810058.323022-1.7462402v-.1343262c0-.7462565-.106608-1.3976318-.319824-1.9541259-.213216-.5564942-.52238-.989323-.92749-1.2984864-.405111-.3091634-.893376-.4637451-1.464795-.4637451-.434961 0-.817684.0831543-1.148169.2494629s-.610865.4072428-.841138.7228027l-.115137-.8443359h-2.123633v.8123535l1.042627.1791016v7.5990234l-.978662.1791016v.8123535zm.454151-3.5116699c-.370997 0-.683358-.0778239-.937085-.2334717-.253728-.1556478-.459481-.3763265-.617261-.6620361v-3.3709473c.15778-.2814453.364599-.5031901.620459-.6652344.255859-.1620442.56289-.2430664.921094-.2430664.40511 0 .743058.1151367 1.013842.3454102.270785.2302734.474406.5468994.610865.9498779.136458.4029785.204687.8688558.204687 1.3976318v.1343262c0 .6950846-.153515 1.2601074-.460547 1.6950684-.307031.4349609-.759049.6524414-1.356054.6524414zm7.208837.9850586c.57142 0 1.060751-.0820882 1.467994-.2462647.407242-.1641764.734529-.3656657.98186-.6044678l-.492529-.81875c-.234538.2132162-.512785.3805909-.834742.5021241-.321956.1215332-.69615.1822998-1.122583.1822998-.388053 0-.72067-.0980794-.997851-.2942383s-.489331-.4658773-.63645-.8091553-.224943-.7366618-.233472-1.1801513l.019189-.0319825h4.490333v-.7867675c0-.6268555-.106609-1.1716228-.319825-1.6343018s-.529842-.8219482-.949878-1.0778076c-.420035-.2558594-.941349-.3837891-1.56394-.3837891-.53304 0-1.024504.1503174-1.47439.4509522-.449886.3006347-.810221.7100097-1.081006 1.228125-.270784.5181152-.406176 1.1055257-.406176 1.7622314v.2814453c0 .6822917.128995 1.2835612.386987 1.8038086s.623657.9264242 1.096997 1.2185303 1.029834.4381592 1.669482.4381592zm1.381641-4.2856446h-3.191846l-.012793-.0319824c.046908-.3582031.144987-.6780273.294239-.9594726.149251-.2814454.339013-.5042562.569287-.6684327.230273-.1641764.486133-.2462646.767578-.2462646.349674 0 .640714.0756917.87312.2270752s.407243.3582031.524512.620459c.117269.2622558.175903.5596924.175903.8923095zm4.957275 4.2856446c.430697 0 .809156-.0810222 1.135376-.2430664.326221-.1620443.602336-.4008464.828345-.7164063l.102344.8251465h2.136426v-.805957l-1.042627-.1791016v-8.993457h-2.302735v.8123535l1.042627.1791016v2.8208496c-.221744-.2857097-.489331-.5042562-.802758-.6556397-.313428-.1513834-.67483-.2270752-1.084205-.2270752-.567154 0-1.053287.1545817-1.458398.4637451s-.714274.7430583-.92749 1.3016846-.319824 1.2089356-.319824 1.9509277v.1343262c0 .6652344.106608 1.2473145.319824 1.7462402.213216.4989258.521313.8880453.924292 1.1673584.402978.2793132.885913.4189698 1.448803.4189698zm.319825-1.0234375c-.597006 0-1.038363-.211084-1.324073-.633252-.285709-.422168-.428564-.9807943-.428564-1.6758789v-.1343262c0-.5330403.063965-1.0010498.191895-1.4040283.127929-.4029785.321956-.7185384.58208-.9466797.260123-.2281412.590608-.3422119.991455-.3422119.362467 0 .673763.0852865.933886.2558594.260124.1705729.471208.4008463.633252.6908203v3.2110352c-.166308.3112955-.377392.5522298-.633252.7228027-.255859.1705729-.571419.2558594-.946679.2558594z" fill="#05b169"/></g></g></g></svg>