<svg height="24" viewBox="0 0 24 24" width="24" xmlns="http://www.w3.org/2000/svg"><path d="m378 18c6.627 0 12 5.373 12 12s-5.373 12-12 12-12-5.373-12-12 5.373-12 12-12zm5.3 13.05c-.09-.097-.236-.116-.349-.05l-5.169 3.05-5.166-3.05-.071-.03c-.098-.025-.206.003-.278.08-.09.098-.099.244-.022.352l5.309 7.48.008.007.007.006c.012.013.022.025.035.035l.016.018.009.003c.018.008.025.015.035.02.036.018.076.028.12.028l.062-.007.056-.02.027-.018.008-.003.01-.003.015-.018.018-.017.017-.018c.004-.005.011-.007.015-.013l5.312-7.48.034-.068c.033-.096.013-.205-.059-.284zm-9.838 1.1 4.04 2.387v3.305l-4.04-5.693zm8.642 0-4.042 5.691v-3.304l4.042-2.388zm-4.321-11.15c-.007 0-.012.004-.019.004l-.033.003-.019.005-.019.006c-.013.004-.025.009-.038.016-.005.003-.011.003-.017.006-.004.002-.005.006-.009.007-.01.006-.018.014-.027.023-.011.01-.021.019-.03.03-.008.009-.016.017-.021.026l-.009.009-5.355 8.807-.026.06-.012.061-.003.01.006.02c0 .037.008.072.023.105l.015.032c.022.038.051.072.091.096l.002.001.001.001 5.357 3.139.007.002c.045.02.087.036.135.036.047 0 .089-.015.128-.036.005-.002.01-.001.016-.003l5.26-3.139.038-.028c.023-.02.04-.044.056-.07.006-.01.01-.02.015-.031.015-.034.022-.069.024-.104 0-.008.005-.014.004-.022 0-.003-.003-.005-.004-.009-.003-.041-.013-.081-.035-.12l-5.262-8.807-.004-.004c-.01-.014-.018-.022-.025-.03-.01-.012-.02-.022-.031-.032-.009-.007-.016-.015-.026-.02l-.009-.01c-.006-.003-.012-.003-.019-.006l-.038-.016c-.01-.005-.022-.008-.034-.011s-.023-.003-.035-.003c-.007 0-.013-.004-.02-.004zm-.28 7.107v4.63l-4.467-2.617zm.56.003 4.38 2.01-4.38 2.612zm-.56-5.83v5.213l-4.367 1.968 4.367-7.182zm.56.015 4.277 7.162-4.278-1.963v-5.2z" fill="#fff" fill-rule="evenodd" transform="translate(-366 -18)"/></svg>