<svg height="220" viewBox="0 0 340 220" width="340" xmlns="http://www.w3.org/2000/svg" xmlns:xlink="http://www.w3.org/1999/xlink"><defs><circle id="a" cx="250.52" cy="89.08" r="32.75"/><mask id="b" fill="#fff" height="65.5" width="65.5" x="0" y="0"><use xlink:href="#a"/></mask></defs><g fill="none" fill-rule="evenodd"><path d="m0 0h340v220h-340z" fill="none"/><g transform="translate(0 21)"><g transform="translate(0 57.64)"><circle cx="31.44" cy="31.44" r="30.785" stroke="#373737" stroke-width="1.31"/><path d="m42.343 34.205c.237-.139.545-.097.73.108.188.206.209.515.052.742l-11.154 15.787c-.01.012-.024.016-.033.027-.022.028-.046.052-.072.076-.012.011-.02.028-.034.037-.012.007-.025.004-.037.012-.02.011-.036.026-.056.037-.076.035-.158.059-.247.059-.094 0-.177-.022-.252-.06-.021-.01-.037-.026-.056-.036-.012-.008-.027-.005-.037-.012-.014-.01-.021-.027-.034-.037-.027-.023-.05-.048-.073-.076-.009-.01-.023-.015-.032-.027l-11.15-15.787c-.161-.227-.14-.536.047-.742.189-.205.494-.247.732-.108l10.85 6.44zm-19.93 2.427 8.487 12.015v-6.976l-8.486-5.039zm18.15 0-8.487 5.039v6.974zm-9.075-23.532c.014 0 .026.007.04.007.025 0 .05.002.074.008.025.006.049.013.073.022.028.01.054.02.08.034.013.008.026.008.04.015.007.005.01.012.018.018.02.012.036.028.053.043.024.022.045.043.065.067.017.018.033.035.046.056.005.008.012.01.016.018l11.05 18.59c.047.08.068.164.075.251.002.008.008.012.008.02.001.015-.009.028-.009.044-.003.076-.02.149-.05.22-.01.024-.018.044-.031.067-.049.08-.11.154-.197.206l-11.048 6.624-.033.007c-.082.043-.171.074-.27.074s-.187-.03-.269-.072c-.009-.005-.019-.002-.028-.008l-11.249-6.621-.003-.003c-.001 0-.003 0-.004-.002-.085-.052-.145-.123-.192-.203-.014-.022-.021-.044-.031-.068-.031-.07-.048-.143-.05-.22 0-.015-.01-.03-.012-.043.001-.009.006-.013.007-.02.008-.09.03-.176.079-.256l11.247-18.59c.005-.006.012-.01.018-.018.012-.02.028-.036.043-.054.02-.025.041-.044.065-.065.02-.018.037-.034.058-.048.007-.003.01-.01.017-.014.012-.008.025-.008.037-.014.027-.015.052-.025.08-.034.026-.009.052-.018.078-.022.024-.005.047-.005.071-.008.015 0 .025-.007.038-.007zm-.588 15-9.38 4.248 9.38 5.524zm1.176.007v9.756l9.198-5.515zm-1.176-12.307-9.17 15.158 9.171-4.154v-11.004zm1.176.032v10.975l8.984 4.142z" fill="#000"/></g><path d="m25.331 137.55v-2.232h-1.004l-.14 1.285h-3.647v-3.37h3.435v-.992h-3.435v-3.032h3.442l.14 1.266h1.011v-2.238h-6.895v.812l1.042.18v7.336l-1.042.179v.806zm6.902 0v-.806l-1.042-.18v-7.374h2.11l.192 1.292h.934v-2.245h-7.74v2.245h.947l.186-1.292h2.11v7.375l-1.042.179v.806zm6.697 0v-.806l-1.042-.18v-3.127h4.452v3.128l-1.043.179v.806h3.345v-.806l-1.042-.18v-7.336l1.042-.179v-.812h-3.345v.812l1.043.18v3.217h-4.452v-3.218l1.042-.179v-.812h-3.345v.812l1.043.18v7.336l-1.043.179v.806z" fill="#000" fill-rule="nonzero"/><path d="m250.52 178.16c49.198 0 89.08-39.882 89.08-89.08s-39.882-89.08-89.08-89.08-89.08 39.882-89.08 89.08 39.882 89.08 89.08 89.08z" fill="#cce7fb"/><circle cx="250.52" cy="89.08" r="28.165" stroke="#373737" stroke-width="1.31"/><use mask="url(#b)" stroke="#05b169" stroke-dasharray="2.62" stroke-width="2.62" xlink:href="#a"/><path d="m261.423 90.535c.237-.139.545-.097.73.108.188.206.209.515.052.742l-11.154 15.787c-.01.012-.024.016-.033.027-.022.028-.046.052-.072.076-.012.011-.02.028-.034.037-.012.007-.025.004-.037.012-.02.011-.036.026-.056.037-.076.035-.158.059-.247.059-.094 0-.177-.022-.252-.06-.021-.01-.037-.026-.056-.036-.012-.008-.027-.005-.037-.012-.014-.01-.021-.027-.034-.037-.027-.023-.05-.048-.073-.076-.009-.01-.023-.015-.032-.027l-11.15-15.787c-.161-.227-.14-.536.047-.742.189-.205.494-.247.732-.108l10.85 6.44zm-19.93 2.427 8.487 12.015v-6.976l-8.486-5.039zm18.15 0-8.487 5.039v6.974zm-9.075-23.532c.014 0 .026.007.04.007.025 0 .05.002.074.008.025.006.049.013.073.022.028.01.054.02.08.034.013.008.026.008.04.015.007.005.01.012.018.018.02.012.036.028.053.043.024.022.045.043.065.067.017.018.033.035.046.056.005.008.012.01.016.018l11.05 18.59c.047.08.068.164.075.251.002.008.008.012.008.02.001.015-.009.028-.009.044-.003.076-.02.149-.05.22-.01.024-.018.044-.031.067-.049.08-.11.154-.197.206l-11.048 6.625-.033.007c-.082.043-.171.074-.27.074s-.187-.03-.269-.072c-.009-.005-.019-.002-.028-.008l-11.249-6.623-.003-.003c-.001 0-.003 0-.004-.002-.085-.052-.145-.123-.192-.203-.014-.022-.021-.044-.031-.068-.031-.07-.048-.143-.05-.22 0-.015-.01-.03-.012-.043.001-.009.006-.013.007-.02.008-.09.03-.176.079-.256l11.247-18.59c.005-.006.012-.01.018-.018.012-.02.028-.036.043-.054.02-.025.041-.044.065-.065.02-.018.037-.034.058-.048.007-.003.01-.01.017-.014.012-.008.025-.008.037-.014.027-.015.052-.025.08-.034.026-.009.052-.018.078-.022.024-.005.047-.005.071-.008.015 0 .025-.007.038-.007zm-.588 15-9.38 4.248 9.38 5.524zm1.176.007v9.756l9.198-5.515zm-1.176-12.307-9.171 15.158 9.171-4.154zm1.176.032v10.975l8.984 4.142z" fill="#05b169"/><g fill-rule="nonzero"><path d="m234.538 137.55 2.028-6.448.25-.94h.038l.256.94 2.021 6.448h1.196l2.085-8.405.736-.096v-.812h-2.968v.812l1.043.147-1.203 5.13-.332 1.267h-.039l-.364-1.267-1.894-6.09h-1.106l-1.875 6.09-.37 1.196-.039-.006-.281-1.196-1.216-5.124.966-.147v-.812h-3.019v.812l.787.096 2.175 8.405zm16.682 0v-2.232h-1.004l-.14 1.285h-3.647v-3.37h3.435v-.992h-3.435v-3.032h3.442l.14 1.266h1.011v-2.238h-6.895v.812l1.042.18v7.336l-1.042.179v.806zm6.902 0v-.806l-1.042-.18v-7.374h2.11l.192 1.292h.934v-2.245h-7.74v2.245h.947l.186-1.292h2.11v7.375l-1.042.179v.806zm6.697 0v-.806l-1.042-.18v-3.127h4.452v3.128l-1.043.179v.806h3.345v-.806l-1.042-.18v-7.336l1.042-.179v-.812h-3.345v.812l1.043.18v3.217h-4.452v-3.218l1.042-.179v-.812h-3.345v.812l1.043.18v7.336l-1.043.179v.806z" fill="#000"/><path d="m208.757 21.86v-2.232h-1.004l-.14 1.285h-3.647v-3.37h3.435v-.992h-3.435v-3.032h3.442l.14 1.266h1.011v-2.238h-6.895v.812l1.042.18v7.336l-1.042.179v.806zm4.606 0v-.806l-1.043-.18v-3.172l1.975-.036 1.87 4.194h1.554v-.825l-.646-.115-1.573-3.403.06-.016c.07-.02.137-.042.202-.065l.191-.076c.435-.19.771-.47 1.008-.841s.355-.83.355-1.375c0-.555-.122-1.024-.365-1.408-.243-.383-.598-.676-1.065-.88-.467-.202-1.04-.303-1.717-.303h-4.152v.806l1.043.18v7.336l-1.043.179v.806zm.678-5.15h-1.72v-3.172h1.848c.644 0 1.12.143 1.426.429.307.285.46.674.46 1.164 0 .516-.16.908-.479 1.177-.32.269-.832.403-1.535.403zm9.044 5.284c.516 0 1.018-.06 1.504-.182s.904-.291 1.253-.508v-2.022h-.985l-.14 1.299c-.188.115-.425.209-.71.281-.286.073-.578.109-.877.109-.64 0-1.182-.145-1.628-.435-.445-.29-.784-.711-1.017-1.263-.232-.553-.348-1.219-.348-2v-.146c0-.721.108-1.356.326-1.907.217-.55.537-.981.96-1.295.422-.313.938-.47 1.547-.47.252 0 .485.02.7.058.216.038.412.093.59.166.176.072.333.162.47.269l.134 1.47h1.004v-2.008c-.328-.29-.742-.529-1.241-.716-.499-.188-1.049-.282-1.65-.282-.853 0-1.587.205-2.2.614-.615.41-1.086.97-1.414 1.68-.329.71-.493 1.52-.493 2.433v.135c0 .904.157 1.712.47 2.424.314.712.783 1.273 1.408 1.682.624.41 1.404.614 2.337.614zm10.177-.134v-2.053h-1.068l-.102 1.068h-3.307l-.013-.032 2.45-2.667c.362-.393.673-.766.93-1.12.258-.354.455-.7.589-1.036.134-.337.201-.676.201-1.017 0-.503-.115-.949-.345-1.337s-.558-.694-.982-.918-.93-.336-1.519-.336c-.627 0-1.167.125-1.621.375-.455.249-.801.588-1.04 1.017-.239.428-.352.911-.339 1.448l.013.039h1.209c0-.601.152-1.066.457-1.395.305-.328.73-.492 1.276-.492.525 0 .928.159 1.21.476.28.318.421.71.421 1.174 0 .252-.04.495-.121.73-.081.234-.224.495-.429.783-.204.288-.488.634-.85 1.04l-3.052 3.39v.863zm4.324.134c.917 0 1.64-.316 2.169-.95.528-.633.793-1.544.793-2.734v-2.207c0-1.185-.267-2.097-.8-2.734-.533-.638-1.258-.957-2.174-.957-.913 0-1.634.32-2.162.957-.53.637-.794 1.549-.794 2.734v2.207c0 1.185.267 2.096.8 2.731.533.636 1.256.953 2.168.953zm0-.985c-.55 0-.972-.205-1.266-.617s-.442-1.02-.442-1.826v-2.731c0-.806.145-1.413.435-1.82.29-.408.71-.611 1.26-.611.56 0 .985.203 1.277.61.292.408.438 1.015.438 1.82v2.732c0 .81-.144 1.42-.432 1.83-.288.409-.711.613-1.27.613zm10.26.985c.93 0 1.611-.197 2.044-.591.433-.395.65-.884.65-1.468 0-.512-.192-.943-.573-1.292-.382-.35-1.055-.638-2.018-.864-.388-.094-.683-.189-.883-.285s-.336-.203-.406-.323c-.07-.119-.106-.26-.106-.422 0-.277.123-.507.368-.69.245-.184.564-.276.956-.276.265 0 .5.03.704.09.205.06.382.145.53.256l.205.92h.947l-.064-1.58c-.277-.2-.602-.36-.975-.479-.373-.12-.822-.179-1.347-.179-.516 0-.968.087-1.356.262s-.69.41-.908.707-.326.632-.326 1.008c0 .537.197.967.591 1.288.395.322 1.01.58 1.846.771.588.132.994.293 1.218.483s.336.421.336.694c0 .29-.11.533-.333.73-.221.196-.588.294-1.1.294-.26 0-.502-.023-.726-.068-.224-.044-.455-.116-.694-.214l-.236-.991h-.953l.012 1.644c.457.196.887.34 1.292.435.405.093.84.14 1.305.14zm6.18-.025c.23 0 .478-.022.744-.064.267-.043.492-.092.675-.147l-.172-.825c-.103.02-.246.045-.429.073s-.35.042-.499.042c-.222 0-.399-.08-.53-.237-.133-.158-.2-.403-.2-.736v-4.202h1.504v-.934h-1.503v-1.67h-1.26v1.67h-1.094v.934h1.094v4.202c0 .661.15 1.142.45 1.443.301.3.708.45 1.22.45zm4.464.025c.414 0 .803-.103 1.167-.31.365-.207.669-.466.912-.777.008.15.023.298.045.448.021.149.05.317.09.505h1.81v-.806l-.672-.07c-.009-.086-.014-.17-.016-.256-.002-.085-.003-.173-.003-.262v-3.333c0-.746-.24-1.32-.717-1.72-.477-.402-1.136-.602-1.976-.602-.504 0-.962.065-1.376.195-.413.13-.776.321-1.087.573v1.586h.972l.135-.966c.174-.124.368-.22.582-.29.213-.071.465-.106.754-.106.461 0 .818.115 1.072.345s.38.554.38.972v.678h-1.234c-.635 0-1.181.09-1.638.272-.456.181-.804.435-1.045.761s-.362.71-.362 1.148c0 .64.188 1.136.563 1.488.375.351.923.527 1.644.527zm.186-1.055c-.38 0-.664-.08-.851-.24-.188-.16-.282-.391-.282-.694 0-.341.145-.65.435-.927.29-.278.725-.416 1.305-.416h1.28v1.253c-.15.282-.397.523-.743.723-.345.2-.727.3-1.144.3zm8.161.921v-.806l-1.042-.18v-4.06c.166-.304.389-.542.668-.717.28-.175.6-.262.963-.262.495 0 .862.127 1.103.383s.362.689.362 1.299v3.358l-1.043.179v.806h3.345v-.806l-1.042-.18v-3.383c0-.912-.205-1.587-.614-2.024-.41-.437-.987-.656-1.734-.656-.443 0-.839.101-1.186.304-.348.202-.637.487-.867.854l-.09-1.03h-2.168v.812l1.043.18v4.944l-1.043.179v.806zm7.964.134c.43 0 .81-.08 1.135-.243.327-.162.603-.4.829-.716l.102.825h2.137v-.806l-1.043-.18v-8.993h-2.303v.813l1.043.179v2.82c-.222-.285-.49-.503-.803-.655-.313-.151-.675-.227-1.084-.227-.567 0-1.053.155-1.459.464-.405.309-.714.743-.927 1.302-.213.558-.32 1.208-.32 1.95v.135c0 .665.107 1.247.32 1.746s.521.888.924 1.167c.403.28.886.42 1.45.42zm.32-1.023c-.597 0-1.038-.211-1.324-.633-.286-.423-.429-.981-.429-1.676v-.135c0-.533.064-1 .192-1.404.128-.403.322-.718.582-.946s.59-.342.992-.342c.362 0 .673.085.934.255.26.17.47.401.633.691v3.211c-.166.312-.378.552-.633.723-.256.17-.572.256-.947.256zm6.991 1.023c.414 0 .803-.103 1.168-.31.364-.207.668-.466.911-.777.009.15.024.298.045.448.021.149.051.317.09.505h1.81v-.806l-.672-.07c-.009-.086-.014-.17-.016-.256-.002-.085-.003-.173-.003-.262v-3.333c0-.746-.239-1.32-.717-1.72-.477-.402-1.136-.602-1.976-.602-.503 0-.962.065-1.375.195-.414.13-.776.321-1.088.573v1.586h.973l.134-.966c.175-.124.369-.22.582-.29.213-.071.465-.106.755-.106.46 0 .817.115 1.071.345s.38.554.38.972v.678h-1.234c-.635 0-1.181.09-1.637.272-.457.181-.805.435-1.046.761s-.362.71-.362 1.148c0 .64.188 1.136.563 1.488.376.351.924.527 1.644.527zm.186-1.055c-.38 0-.663-.08-.851-.24s-.281-.391-.281-.694c0-.341.145-.65.435-.927.29-.278.724-.416 1.304-.416h1.28v1.253c-.15.282-.397.523-.742.723-.346.2-.727.3-1.145.3zm8.149.921v-.806l-1.043-.18v-3.92c.124-.29.299-.521.525-.694s.505-.249.838-.227l.876.051.166-1.17c-.06-.022-.159-.044-.297-.068-.139-.023-.274-.035-.406-.035-.371 0-.7.1-.989.3-.287.201-.53.478-.726.832l-.012-.121-.11-.883h-2.168v.812l1.043.18v4.944l-1.043.179v.806zm4.848.134c.431 0 .81-.08 1.136-.243.326-.162.602-.4.828-.716l.102.825h2.137v-.806l-1.043-.18v-8.993h-2.302v.813l1.042.179v2.82c-.222-.285-.49-.503-.803-.655-.313-.151-.674-.227-1.084-.227-.567 0-1.053.155-1.458.464s-.714.743-.928 1.302c-.213.558-.32 1.208-.32 1.95v.135c0 .665.107 1.247.32 1.746.214.499.522.888.925 1.167.403.28.886.42 1.448.42zm.32-1.023c-.597 0-1.038-.211-1.324-.633-.286-.423-.428-.981-.428-1.676v-.135c0-.533.064-1 .191-1.404.128-.403.322-.718.583-.946.26-.228.59-.342.991-.342.362 0 .674.085.934.255s.471.401.633.691v3.211c-.166.312-.377.552-.633.723-.256.17-.572.256-.947.256z" fill="#0091ff"/><path d="m202.14 84.46 11 5.275-11 5.275zm-53.145 4.62v1.31h-3.93v-1.31zm5.24 0v1.31h-3.93v-1.31zm5.24 0v1.31h-3.93v-1.31zm5.24 0v1.31h-3.93v-1.31zm5.24 0v1.31h-3.93v-1.31zm5.24 0v1.31h-3.93v-1.31zm5.24 0v1.31h-3.93v-1.31zm5.24 0v1.31h-3.93v-1.31zm5.24 0v1.31h-3.93v-1.31zm5.24 0v1.31h-3.93v-1.31zm5.24 0v1.31h-3.93v-1.31zm-131 0v1.31h-3.93v-1.31zm5.24 0v1.31h-3.93v-1.31zm5.24 0v1.31h-3.93v-1.31zm5.24 0v1.31h-3.93v-1.31zm5.24 0v1.31h-3.93v-1.31zm5.24 0v1.31h-3.93v-1.31zm5.24 0v1.31h-3.93v-1.31zm5.24 0v1.31h-3.93v-1.31zm5.24 0v1.31h-3.93v-1.31zm5.24 0v1.31h-3.93v-1.31zm5.24 0v1.31h-3.93v-1.31zm5.24 0v1.31h-3.93v-1.31zm5.24 0v1.31h-3.93v-1.31zm5.24 0v1.31h-3.93v-1.31zm5.24 0v1.31h-3.93v-1.31zm-27.04-6.55 1.503-4.158.326-1.106.038-.007.333 1.113 1.4 4.158h1.197l1.79-6 .768-.109v-.812h-2.795v.812l.87.135-.966 3.441-.3.972h-.039l-.307-.972-1.433-4.388h-1.061l-1.504 4.4-.281.82h-.038l-.218-.82-.953-3.447.85-.14v-.813h-2.858v.812l.773.09 1.823 6.019zm11.456 0v-.806l-1.043-.18v-3.92c.124-.29.298-.521.524-.694s.506-.249.838-.227l.877.051.166-1.17c-.06-.022-.159-.044-.297-.068-.139-.023-.274-.035-.407-.035-.37 0-.7.1-.988.3-.288.201-.53.478-.726.832l-.013-.121-.108-.883h-2.169v.812l1.043.18v4.944l-1.043.179v.806zm4.368.134c.414 0 .803-.103 1.168-.31.364-.207.668-.466.911-.777.009.15.024.298.045.448.021.149.051.317.09.505h1.81v-.806l-.672-.07c-.008-.086-.014-.17-.016-.256-.002-.085-.003-.173-.003-.262v-3.333c0-.746-.239-1.32-.716-1.72-.478-.402-1.137-.602-1.977-.602-.503 0-.962.065-1.375.195-.414.13-.776.321-1.088.573v1.586h.973l.134-.966c.175-.124.369-.22.582-.29.213-.071.465-.106.755-.106.46 0 .818.115 1.071.345.254.23.38.554.38.972v.678h-1.234c-.635 0-1.18.09-1.637.272-.456.181-.805.435-1.046.761-.24.326-.361.71-.361 1.148 0 .64.187 1.136.563 1.488.375.351.923.527 1.643.527zm.186-1.055c-.38 0-.663-.08-.85-.24-.188-.16-.282-.391-.282-.694 0-.341.145-.65.435-.927.29-.278.725-.416 1.305-.416h1.279v1.253c-.15.282-.397.523-.742.723-.346.2-.727.3-1.145.3zm7.964 3.582v-.812l-1.1-.18v-2.385c.225.281.5.493.821.636.322.143.696.214 1.123.214.563 0 1.045-.14 1.445-.419.401-.279.71-.668.925-1.167s.323-1.081.323-1.746v-.135c0-.746-.107-1.397-.32-1.954-.213-.556-.522-.989-.928-1.298-.405-.31-.893-.464-1.464-.464-.435 0-.818.083-1.148.25-.331.166-.611.407-.842.722l-.115-.844h-2.123v.812l1.042.18v7.598l-.978.18v.812zm.454-3.512c-.371 0-.684-.078-.937-.233-.254-.156-.46-.377-.618-.662v-3.371c.158-.282.365-.503.62-.665.257-.162.564-.243.922-.243.405 0 .743.115 1.014.345.27.23.474.547.61.95.137.403.205.869.205 1.397v.135c0 .695-.153 1.26-.46 1.695s-.76.652-1.356.652zm7.202 3.512v-.812l-1.1-.18v-2.385c.226.281.5.493.822.636s.696.214 1.122.214c.563 0 1.045-.14 1.446-.419.4-.279.709-.668.924-1.167.216-.499.323-1.081.323-1.746v-.135c0-.746-.106-1.397-.32-1.954-.213-.556-.522-.989-.927-1.298-.405-.31-.893-.464-1.465-.464-.435 0-.817.083-1.148.25-.33.166-.61.407-.841.722l-.115-.844h-2.124v.812l1.043.18v7.598l-.979.18v.812h3.34zm.454-3.512c-.37 0-.683-.078-.937-.233-.254-.156-.46-.377-.617-.662v-3.371c.158-.282.365-.503.62-.665.256-.162.563-.243.921-.243.406 0 .744.115 1.014.345.271.23.475.547.611.95.137.403.205.869.205 1.397v.135c0 .695-.154 1.26-.46 1.695-.308.435-.76.652-1.357.652zm7.21.985c.57 0 1.06-.082 1.467-.246s.735-.366.982-.604l-.493-.82c-.234.214-.512.381-.834.503s-.696.182-1.123.182c-.388 0-.72-.098-.998-.294-.277-.196-.49-.466-.636-.81-.147-.342-.225-.736-.234-1.18l.02-.031h4.49v-.787c0-.627-.107-1.172-.32-1.634-.213-.463-.53-.822-.95-1.078s-.941-.384-1.564-.384c-.533 0-1.024.15-1.474.451-.45.3-.81.71-1.081 1.228s-.406 1.106-.406 1.762v.282c0 .682.129 1.283.387 1.804.258.52.623.926 1.097 1.218.473.292 1.03.438 1.67.438zm1.38-4.285h-3.191l-.013-.032c.047-.359.145-.678.294-.96.15-.281.34-.504.57-.668s.486-.246.767-.246c.35 0 .64.075.873.227.233.151.408.358.525.62s.176.56.176.892v.167zm4.958 4.285c.43 0 .81-.08 1.135-.243.327-.162.603-.4.829-.716l.102.825h2.137v-.806l-1.043-.18v-8.993h-2.303v.813l1.043.179v2.82c-.222-.285-.49-.503-.803-.655-.313-.151-.675-.227-1.084-.227-.567 0-1.053.155-1.459.464-.405.309-.714.743-.927 1.302-.213.558-.32 1.208-.32 1.95v.135c0 .665.107 1.247.32 1.746s.521.888.924 1.167c.403.28.886.42 1.449.42zm.32-1.023c-.597 0-1.039-.211-1.324-.633-.286-.423-.429-.981-.429-1.676v-.135c0-.533.064-1 .192-1.404.128-.403.322-.718.582-.946s.59-.342.992-.342c.362 0 .673.085.934.255.26.17.47.401.633.691v3.211c-.167.312-.378.552-.633.723-.256.17-.572.256-.947.256z" fill="#05b169"/></g></g></g></svg>