<svg xmlns="http://www.w3.org/2000/svg" width="63" height="49" viewBox="0 0 63 49">
    <defs>
        <linearGradient id="2svx4p88oa" x1="49.729%" x2="49.729%" y1=".022%" y2="100.005%">
            <stop offset="0%" stop-color="#FF8D55"/>
            <stop offset="100%" stop-color="#FF6B57"/>
        </linearGradient>
    </defs>
    <g fill="none" fill-rule="evenodd">
        <g fill-rule="nonzero">
            <g>
                <g>
                    <g>
                        <g fill="#2F2F2F">
                            <path d="M1.386 3.313c-.084-.042-.21-.042-.336-.084-.084-.042-.21-.084-.294-.168-.084-.084-.168-.126-.252-.21-.084-.084-.168-.168-.21-.252-.042-.084-.126-.168-.168-.294-.042-.084-.084-.21-.084-.294C0 1.885 0 1.8 0 1.675 0 1.255.168.793.504.499.882.12 1.47-.09 2.016.037c.126 0 .21.042.336.084.084.042.21.084.294.168.084.042.168.126.252.21.294.294.504.756.504 1.176 0 .126 0 .21-.042.336 0 .084-.042.21-.084.294-.042.084-.084.21-.168.294-.084.084-.126.168-.21.252-.084.084-.168.126-.252.21-.084.042-.168.126-.294.168-.084.042-.21.084-.336.084-.084.042-.21.042-.294.042-.126 0-.21 0-.336-.042z" transform="translate(-240 -897) translate(160 477) translate(40 394) translate(40 26) translate(9.367 5.507)"/>
                        </g>
                        <g fill="#2F2F2F">
                            <path d="M1.386 3.35c-.126 0-.21-.043-.336-.085-.084-.042-.21-.084-.294-.168-.084-.084-.168-.126-.252-.21C.168 2.593 0 2.131 0 1.711c0-.126 0-.21.042-.336 0-.126.042-.21.084-.336C.168.913.21.83.294.745.336.661.42.577.504.493.588.41.672.367.756.283.84.241.966.157 1.05.115c.084-.042.21-.083.336-.083.21-.042.42-.042.672 0 .084 0 .21.041.336.083.084.042.21.084.294.168.084.042.168.126.252.21.084.084.126.168.21.252.042.084.126.168.168.294.042.126.084.21.084.336 0 .126.042.21.042.336 0 .42-.168.882-.504 1.176-.084.084-.168.126-.252.21-.084.042-.168.126-.294.168-.084.042-.21.084-.336.084-.126.042-.21.042-.336.042-.126 0-.21 0-.336-.042z" transform="translate(-240 -897) translate(160 477) translate(40 394) translate(40 26) translate(42.967 39.995)"/>
                        </g>
                        <g fill="#FF7A56">
                            <path d="M.504 2.85C.21 2.516 0 2.096 0 1.676 0 1.213.168.793.504.499.588.415.672.33.756.289.84.205.966.163 1.05.12c.084-.042.21-.084.336-.084C1.932-.09 2.52.12 2.898.499c.084.084.168.168.21.252.042.084.126.21.168.294.042.084.084.21.084.336 0 .126.042.21.042.336 0 .42-.168.882-.504 1.176-.336.294-.756.462-1.218.462-.462 0-.882-.168-1.176-.504z" transform="translate(-240 -897) translate(160 477) translate(40 394) translate(40 26) translate(56.995 32.01)"/>
                        </g>
                        <path fill="url(#2svx4p88oa)" d="M44.48 0L32.3 16.632h14.07L19.446 48.384l6.3-24.192H14.533L25.201 0H44.48z" transform="translate(-240 -897) translate(160 477) translate(40 394) translate(40 26)"/>
                        <g fill="#FF7A56">
                            <path d="M4.888 16.093c-.672-.42-.924-1.344-.462-2.016L7.24 9.499H1.486c-.546 0-1.05-.294-1.302-.756s-.252-1.05.042-1.512l4.2-6.552C4.846.007 5.77-.203 6.442.217c.672.42.882 1.344.462 2.016l-2.73 4.326h5.712c.546 0 1.008.294 1.302.756.252.462.252 1.05-.042 1.47l-4.242 6.804c-.294.462-.756.714-1.26.714-.252 0-.546-.084-.756-.21z" transform="translate(-240 -897) translate(160 477) translate(40 394) translate(40 26) translate(50.805 2.01)"/>
                        </g>
                        <g fill="#FF7A56">
                            <path d="M5.797 16.714c-.714-.336-1.05-1.218-.672-1.974L7.52 9.742H1.471c-.504 0-.966-.252-1.26-.714C-.04 8.608-.083 8.062.17 7.6L3.613.796c.378-.714 1.26-1.008 1.974-.63s1.008 1.26.63 1.974L3.865 6.802h6.006c.504 0 .966.252 1.26.672.252.42.294.966.084 1.428L7.771 16c-.294.588-.798.882-1.344.882-.21 0-.42-.042-.63-.168z" transform="translate(-240 -897) translate(160 477) translate(40 394) translate(40 26) translate(0 23.522)"/>
                        </g>
                    </g>
                </g>
            </g>
        </g>
    </g>
</svg>
